font.ufo
<glyph name="comma" format="1">
  <advance width="263"/>
  <unicode hex="002C"/>
  <outline>
    <contour>
      <point x="141" y="110" type="curve" smooth="yes"/>
      <point x="173" y="110"/>
      <point x="243" y="32"/>
      <point x="242" y="21" type="curve" smooth="yes"/>
      <point x="234" y="-48"/>
      <point x="158" y="-125"/>
      <point x="130" y="-148" type="curve"/>
      <point x="89" y="-121" type="line"/>
      <point x="94" y="-116"/>
      <point x="139" y="-56"/>
      <point x="144" y="-34" type="curve" smooth="yes"/>
      <point x="147" y="-21"/>
      <point x="80" y="-8"/>
      <point x="80" y="51" type="curve" smooth="yes"/>
      <point x="80" y="86"/>
      <point x="109" y="110"/>
    </contour>
  </outline>
</glyph>
<glyph name="zero" format="1">
  <advance width="655"/>
  <unicode hex="0030"/>
  <outline>
    <contour>
      <point x="413" y="723" type="move" name="top"/>
    </contour>
    <contour>
      <point x="517" y="526" type="curve" smooth="yes"/>
      <point x="710" y="340"/>
      <point x="513" y="-117"/>
      <point x="270" y="-15" type="curve" smooth="yes"/>
      <point x="243" y="-4"/>
      <point x="174" y="39"/>
      <point x="134" y="83" type="curve" smooth="yes"/>
      <point x="-84" y="323"/>
      <point x="239" y="750"/>
      <point x="367" y="654" type="curve" smooth="yes"/>
      <point x="450" y="592"/>
      <point x="476" y="565"/>
    </contour>
    <contour>
      <point x="422" y="541" type="curve" smooth="yes"/>
      <point x="291" y="644"/>
      <point x="86" y="176"/>
      <point x="228" y="76" type="curve" smooth="yes"/>
      <point x="376" y="-28"/>
      <point x="597" y="402"/>
    </contour>
  </outline>
</glyph>
<glyph name="one" format="1">
  <advance width="394"/>
  <unicode hex="0031"/>
  <outline>
    <contour>
      <point x="329" y="-29" type="line"/>
      <point x="216" y="-6" type="line"/>
      <point x="216" y="530" type="line"/>
      <point x="122" y="438" type="line"/>
      <point x="23" y="475" type="line"/>
      <point x="213" y="662" type="line"/>
      <point x="284" y="638" type="line"/>
      <point x="327" y="625" type="line"/>
    </contour>
  </outline>
</glyph>
<glyph name="six" format="1">
  <advance width="547"/>
  <unicode hex="0036"/>
  <outline>
    <contour>
      <point x="448" y="583" type="line"/>
      <point x="180" y="471"/>
      <point x="122" y="146"/>
      <point x="205" y="89" type="curve" smooth="yes"/>
      <point x="332" y="2"/>
      <point x="597" y="405"/>
      <point x="175" y="269" type="curve"/>
      <point x="192" y="372" type="line"/>
      <point x="214" y="379"/>
      <point x="321" y="398"/>
      <point x="346" y="379" type="curve" smooth="yes"/>
      <point x="411" y="329"/>
      <point x="460" y="292"/>
      <point x="483" y="262" type="curve" smooth="yes"/>
      <point x="576" y="141"/>
      <point x="373" y="-66"/>
      <point x="273" y="-18" type="curve" smooth="yes"/>
      <point x="198" y="18"/>
      <point x="122" y="72"/>
      <point x="71" y="127" type="curve" smooth="yes"/>
      <point x="-3" y="206"/>
      <point x="67" y="536"/>
      <point x="342" y="672" type="curve"/>
    </contour>
  </outline>
</glyph>
<glyph name="seven" format="1">
  <advance width="529"/>
  <unicode hex="0037"/>
  <outline>
    <contour>
      <point x="409" y="618" type="line"/>
      <point x="5" y="618" type="line"/>
      <point x="85" y="528" type="line"/>
      <point x="347" y="528" type="line"/>
      <point x="169" y="0" type="line"/>
      <point x="299" y="-29" type="line"/>
      <point x="489" y="528" type="line"/>
    </contour>
  </outline>
</glyph>
<glyph name="eight" format="1">
  <advance width="566"/>
  <unicode hex="0038"/>
  <outline>
    <contour>
      <point x="485" y="517" type="curve" smooth="yes"/>
      <point x="466" y="545"/>
      <point x="347" y="667"/>
      <point x="322" y="668" type="curve" smooth="yes"/>
      <point x="167" y="676"/>
      <point x="84" y="529"/>
      <point x="101" y="476" type="curve" smooth="yes"/>
      <point x="111" y="445"/>
      <point x="186" y="380"/>
      <point x="243" y="344" type="curve"/>
      <point x="83" y="211"/>
      <point x="68" y="147"/>
      <point x="98" y="97" type="curve" smooth="yes"/>
      <point x="115" y="68"/>
      <point x="294" y="-36"/>
      <point x="319" y="-37" type="curve" smooth="yes"/>
      <point x="474" y="-45"/>
      <point x="538" y="138"/>
      <point x="507" y="185" type="curve" smooth="yes"/>
      <point x="496" y="202"/>
      <point x="436" y="265"/>
      <point x="370" y="308" type="curve"/>
      <point x="432" y="369"/>
      <point x="521" y="464"/>
    </contour>
    <contour>
      <point x="227" y="46" type="curve" smooth="yes"/>
      <point x="142" y="91"/>
      <point x="267" y="199"/>
      <point x="335" y="279" type="curve"/>
      <point x="503" y="175"/>
      <point x="322" y="-4"/>
    </contour>
    <contour>
      <point x="270" y="371" type="curve"/>
      <point x="115" y="474"/>
      <point x="303" y="633"/>
      <point x="390" y="560" type="curve" smooth="yes"/>
      <point x="420" y="535"/>
      <point x="350" y="447"/>
    </contour>
  </outline>
</glyph>
<glyph name="nine" format="1">
  <advance width="512"/>
  <unicode hex="0039"/>
  <outline>
    <contour>
      <point x="72" y="47" type="line"/>
      <point x="156" y="87"/>
      <point x="241" y="165"/>
      <point x="288" y="250" type="curve" smooth="yes"/>
      <point x="298" y="268" type="line"/>
      <point x="261" y="256"/>
      <point x="220" y="247"/>
      <point x="204" y="260" type="curve" smooth="yes"/>
      <point x="139" y="310"/>
      <point x="90" y="347"/>
      <point x="67" y="377" type="curve" smooth="yes"/>
      <point x="-26" y="498"/>
      <point x="147" y="708"/>
      <point x="247" y="660" type="curve" smooth="yes"/>
      <point x="322" y="624"/>
      <point x="398" y="570"/>
      <point x="449" y="515" type="curve" smooth="yes"/>
      <point x="493" y="468"/>
      <point x="471" y="318"/>
      <point x="397" y="184" type="curve" smooth="yes"/>
      <point x="347" y="93"/>
      <point x="271" y="18"/>
      <point x="178" y="-30" type="curve"/>
    </contour>
    <contour>
      <point x="318" y="564" type="curve" smooth="yes"/>
      <point x="215" y="621"/>
      <point x="100" y="402"/>
      <point x="192" y="344" type="curve" smooth="yes"/>
      <point x="218" y="327"/>
      <point x="273" y="321"/>
      <point x="325" y="331" type="curve"/>
      <point x="366" y="440"/>
      <point x="367" y="536"/>
    </contour>
  </outline>
</glyph>
<glyph name="C" format="1">
  <advance width="827"/>
  <unicode hex="0043"/>
  <outline>
    <contour>
      <point x="436" y="743" type="move" name="top"/>
    </contour>
    <contour>
      <point x="206" y="8" type="move" name="cedilla"/>
    </contour>
    <contour>
      <point x="646" y="512" type="curve"/>
      <point x="617" y="530"/>
      <point x="568" y="556"/>
      <point x="497" y="591" type="curve" smooth="yes"/>
      <point x="304" y="686"/>
      <point x="63" y="257"/>
      <point x="321" y="111" type="curve" smooth="yes"/>
      <point x="448" y="39"/>
      <point x="524" y="89"/>
      <point x="603" y="149" type="curve"/>
      <point x="706" y="72" type="line"/>
      <point x="607" y="-12"/>
      <point x="469" y="-66"/>
      <point x="349" y="5" type="curve" smooth="yes"/>
      <point x="269" y="52"/>
      <point x="227" y="84"/>
      <point x="194" y="114" type="curve" smooth="yes"/>
      <point x="-94" y="379"/>
      <point x="240" y="796"/>
      <point x="465" y="693" type="curve" smooth="yes"/>
      <point x="590" y="636"/>
      <point x="632" y="616"/>
      <point x="701" y="581" type="curve"/>
      <point x="701" y="580"/>
      <point x="646" y="512"/>
    </contour>
  </outline>
</glyph>
<glyph name="D" format="1">
  <advance width="666"/>
  <unicode hex="0044"/>
  <outline>
    <contour>
      <point x="429" y="683" type="move" name="top"/>
    </contour>
  </outline>
</glyph>
<glyph name="E" format="1">
  <advance width="551"/>
  <unicode hex="0045"/>
  <outline>
    <contour>
      <point x="342" y="743" type="move" name="top"/>
    </contour>
    <contour>
      <point x="440" y="101" type="move" name="ogonek"/>
    </contour>
  </outline>
</glyph>
<glyph name="G" format="1">
  <advance width="813"/>
  <unicode hex="0047"/>
  <outline>
    <contour>
      <point x="442" y="723" type="move" name="top"/>
    </contour>
    <contour>
      <point x="741" y="297" type="line"/>
      <point x="741" y="297"/>
      <point x="743" y="76"/>
      <point x="743" y="47" type="curve" smooth="yes"/>
      <point x="743" y="-56"/>
      <point x="758" y="-91"/>
      <point x="828" y="-111" type="curve"/>
      <point x="735" y="-136"/>
      <point x="629" y="-76"/>
      <point x="622" y="30" type="curve" smooth="yes"/>
      <point x="619" y="74" type="line"/>
      <point x="536" y="1"/>
      <point x="440" y="-65"/>
      <point x="330" y="5" type="curve" smooth="yes"/>
      <point x="252" y="55"/>
      <point x="192" y="90"/>
      <point x="159" y="120" type="curve" smooth="yes"/>
      <point x="-129" y="385"/>
      <point x="221" y="796"/>
      <point x="446" y="693" type="curve" smooth="yes"/>
      <point x="571" y="636"/>
      <point x="610" y="619"/>
      <point x="679" y="584" type="curve"/>
      <point x="679" y="583"/>
      <point x="636" y="531"/>
      <point x="636" y="531" type="curve"/>
      <point x="606" y="545"/>
      <point x="559" y="568"/>
      <point x="495" y="588" type="curve" smooth="yes"/>
      <point x="311" y="646"/>
      <point x="68" y="234"/>
      <point x="298" y="103" type="curve" smooth="yes"/>
      <point x="423" y="32"/>
      <point x="537" y="171"/>
      <point x="606" y="248" type="curve"/>
      <point x="450" y="248" type="line"/>
      <point x="370" y="338" type="line"/>
      <point x="603" y="338" type="line"/>
    </contour>
  </outline>
</glyph>
<glyph name="H" format="1">
  <advance width="742"/>
  <unicode hex="0048"/>
  <outline>
    <contour>
      <point x="183" y="345" type="line"/>
      <point x="550" y="365" type="line"/>
      <point x="550" y="280" type="line"/>
      <point x="183" y="260" type="line"/>
    </contour>
    <contour>
      <point x="672" y="-29" type="line"/>
      <point x="532" y="0" type="line"/>
      <point x="532" y="666" type="line"/>
      <point x="672" y="626" type="line"/>
    </contour>
    <contour>
      <point x="210" y="-29" type="line"/>
      <point x="70" y="0" type="line"/>
      <point x="70" y="666" type="line"/>
      <point x="208" y="626" type="line"/>
    </contour>
  </outline>
</glyph>
<glyph name="K" format="1">
  <advance width="668"/>
  <unicode hex="004B"/>
  <outline>
    <contour>
      <point x="63" y="127" type="line"/>
      <point x="66" y="126" type="line"/>
      <point x="66" y="0" type="line"/>
      <point x="196" y="-29" type="line"/>
      <point x="195" y="102" type="line"/>
      <point x="343" y="288" type="line"/>
      <point x="533" y="0" type="line"/>
      <point x="663" y="-29" type="line"/>
      <point x="401" y="361" type="line"/>
      <point x="400" y="361" type="line"/>
      <point x="620" y="637" type="line"/>
      <point x="490" y="666" type="line"/>
      <point x="195" y="294" type="line"/>
      <point x="194" y="625" type="line"/>
      <point x="66" y="666" type="line"/>
      <point x="66" y="131" type="line"/>
    </contour>
  </outline>
</glyph>
<glyph name="O" format="1">
  <advance width="823"/>
  <unicode hex="004F"/>
  <outline>
    <contour>
      <point x="492" y="743" type="move" name="top"/>
    </contour>
    <contour>
      <point x="531" y="572" type="curve" smooth="yes"/>
      <point x="757" y="424"/>
      <point x="543" y="-56"/>
      <point x="294" y="102" type="curve" smooth="yes"/>
      <point x="68" y="246"/>
      <point x="272" y="742"/>
    </contour>
    <contour>
      <point x="687" y="523" type="curve" smooth="yes"/>
      <point x="626" y="582"/>
      <point x="564" y="629"/>
      <point x="464" y="683" type="curve" smooth="yes"/>
      <point x="201" y="825"/>
      <point x="-72" y="346"/>
      <point x="131" y="152" type="curve" smooth="yes"/>
      <point x="223" y="63"/>
      <point x="268" y="44"/>
      <point x="340" y="4" type="curve" smooth="yes"/>
      <point x="629" y="-160"/>
      <point x="897" y="319"/>
    </contour>
  </outline>
</glyph>
<glyph name="P" format="1">
  <advance width="664"/>
  <unicode hex="0050"/>
  <outline>
    <contour>
      <point x="142" y="267" type="line"/>
      <point x="508" y="83"/>
      <point x="668" y="441"/>
      <point x="613" y="506" type="curve" smooth="yes"/>
      <point x="578" y="547"/>
      <point x="467" y="657"/>
      <point x="430" y="690" type="curve" smooth="yes"/>
      <point x="399" y="719"/>
      <point x="199" y="700"/>
      <point x="85" y="669" type="curve"/>
      <point x="139" y="582" type="line"/>
      <point x="216" y="597"/>
      <point x="406" y="647"/>
      <point x="473" y="578" type="curve" smooth="yes"/>
      <point x="549" y="500"/>
      <point x="468" y="193"/>
      <point x="136" y="299" type="curve"/>
    </contour>
    <contour>
      <point x="213" y="628" type="line"/>
      <point x="85" y="669" type="line"/>
      <point x="85" y="0" type="line"/>
      <point x="215" y="-29" type="line"/>
    </contour>
  </outline>
</glyph>
<glyph name="Q" format="1">
  <advance width="659"/>
  <unicode hex="0051"/>
  <outline>
    <contour>
      <point x="420" y="-257" type="line"/>
      <point x="455" y="-240"/>
      <point x="502" y="-180"/>
      <point x="425" y="-116" type="curve" smooth="yes"/>
      <point x="391" y="-87"/>
      <point x="327" y="-38"/>
      <point x="269" y="5" type="curve" smooth="yes"/>
      <point x="265" y="8" type="line" smooth="yes"/>
      <point x="239" y="25"/>
      <point x="205" y="51"/>
      <point x="165" y="84" type="curve" smooth="yes"/>
      <point x="154" y="94" type="line"/>
      <point x="148" y="100" type="line" smooth="yes"/>
      <point x="-98" y="312"/>
      <point x="204" y="789"/>
      <point x="397" y="631" type="curve" smooth="yes"/>
      <point x="453" y="585"/>
      <point x="477" y="561"/>
      <point x="517" y="521" type="curve" smooth="yes"/>
      <point x="665" y="371"/>
      <point x="564" y="-48"/>
      <point x="362" y="-31" type="curve"/>
      <point x="508" y="-137" type="line" smooth="yes"/>
      <point x="588" y="-195"/>
      <point x="580" y="-294"/>
      <point x="531" y="-340" type="curve"/>
    </contour>
    <contour>
      <point x="416" y="526" type="curve" smooth="yes"/>
      <point x="264" y="651"/>
      <point x="91" y="236"/>
      <point x="236" y="113" type="curve" smooth="yes"/>
      <point x="387" y="-15"/>
      <point x="564" y="403"/>
    </contour>
  </outline>
</glyph>
<glyph name="R" format="1">
  <advance width="671"/>
  <unicode hex="0052"/>
  <outline>
    <contour>
      <point x="367" y="743" type="move" name="top"/>
    </contour>
    <contour>
      <point x="541" y="-75" type="line"/>
      <point x="590" y="-29"/>
      <point x="634" y="30"/>
      <point x="541" y="143" type="curve" smooth="yes"/>
      <point x="517" y="172"/>
      <point x="467" y="221"/>
      <point x="426" y="260" type="curve"/>
      <point x="558" y="318"/>
      <point x="607" y="465"/>
      <point x="573" y="506" type="curve" smooth="yes"/>
      <point x="538" y="547"/>
      <point x="427" y="657"/>
      <point x="390" y="690" type="curve" smooth="yes"/>
      <point x="359" y="719"/>
      <point x="159" y="700"/>
      <point x="45" y="669" type="curve"/>
      <point x="45" y="0" type="line"/>
      <point x="175" y="-29" type="line"/>
      <point x="174" y="261" type="line"/>
      <point x="242" y="237"/>
      <point x="302" y="232"/>
      <point x="354" y="240" type="curve"/>
      <point x="384" y="198"/>
      <point x="420" y="145"/>
      <point x="443" y="108" type="curve" smooth="yes"/>
      <point x="475" y="57"/>
      <point x="464" y="36"/>
      <point x="431" y="16" type="curve"/>
    </contour>
    <contour>
      <point x="421" y="563" type="curve" smooth="yes"/>
      <point x="490" y="492"/>
      <point x="425" y="293"/>
      <point x="174" y="323" type="curve"/>
      <point x="173" y="595" type="line"/>
      <point x="258" y="608"/>
      <point x="371" y="614"/>
    </contour>
  </outline>
</glyph>
<glyph name="X" format="1">
  <advance width="710"/>
  <unicode hex="0058"/>
  <outline>
    <contour>
      <point x="527" y="666" type="line"/>
      <point x="667" y="637" type="line"/>
      <point x="169" y="-29" type="line"/>
      <point x="30" y="0" type="line"/>
    </contour>
    <contour>
      <point x="690" y="-29" type="line"/>
      <point x="550" y="0" type="line"/>
      <point x="42" y="667" type="line"/>
      <point x="177" y="638" type="line"/>
    </contour>
  </outline>
</glyph>
<glyph name="a" format="1">
  <advance width="557"/>
  <unicode hex="0061"/>
  <outline>
    <contour>
      <point x="422" y="507" type="move" name="top"/>
    </contour>
    <contour>
      <point x="392" y="7" type="move" name="ogonek"/>
    </contour>
    <contour>
      <point x="56" y="451" type="curve" smooth="yes"/>
      <point x="60" y="443"/>
      <point x="134" y="355"/>
      <point x="134" y="355" type="curve"/>
      <point x="164" y="365"/>
      <point x="371" y="471"/>
      <point x="386" y="394" type="curve" smooth="yes"/>
      <point x="395" y="348"/>
      <point x="386" y="0"/>
      <point x="386" y="0" type="curve"/>
      <point x="500" y="-29" type="line"/>
      <point x="496" y="56"/>
      <point x="512" y="363"/>
      <point x="494" y="390" type="curve" smooth="yes"/>
      <point x="469" y="427"/>
      <point x="374" y="529"/>
      <point x="342" y="531" type="curve" smooth="yes"/>
      <point x="310" y="533"/>
      <point x="54" y="454"/>
    </contour>
    <contour>
      <point x="397" y="334" type="curve" smooth="yes"/>
      <point x="397" y="337"/>
      <point x="41" y="260"/>
      <point x="36" y="196" type="curve" smooth="yes"/>
      <point x="31" y="132"/>
      <point x="75" y="-18"/>
      <point x="229" y="-30" type="curve" smooth="yes"/>
      <point x="295" y="-35"/>
      <point x="407" y="69"/>
      <point x="407" y="69" type="curve"/>
      <point x="398" y="174" type="line"/>
      <point x="320" y="111"/>
      <point x="171" y="53"/>
      <point x="142" y="93" type="curve" smooth="yes"/>
      <point x="80" y="179"/>
      <point x="393" y="248"/>
      <point x="393" y="248" type="curve"/>
      <point x="393" y="248"/>
      <point x="397" y="331"/>
    </contour>
  </outline>
</glyph>
<glyph name="b" format="1">
  <advance width="608"/>
  <unicode hex="0062"/>
  <outline>
    <contour>
      <point x="178" y="42" type="line"/>
      <point x="380" y="-23"/>
      <point x="522" y="309"/>
      <point x="411" y="385" type="curve" smooth="yes"/>
      <point x="370" y="413"/>
      <point x="262" y="407"/>
      <point x="178" y="248" type="curve"/>
    </contour>
    <contour>
      <point x="178" y="428" type="line"/>
      <point x="245" y="488"/>
      <point x="291" y="500"/>
      <point x="362" y="472" type="curve" smooth="yes"/>
      <point x="397" y="458"/>
      <point x="456" y="418"/>
      <point x="501" y="376" type="curve" smooth="yes"/>
      <point x="663" y="228"/>
      <point x="472" y="-66"/>
      <point x="284" y="-29" type="curve" smooth="yes"/>
      <point x="207" y="-14"/>
      <point x="126" y="14"/>
      <point x="63" y="52" type="curve"/>
      <point x="63" y="709" type="line"/>
      <point x="178" y="681" type="line"/>
    </contour>
  </outline>
</glyph>
<glyph name="d" format="1">
  <advance width="625"/>
  <unicode hex="0064"/>
  <outline>
    <contour>
      <point x="565" y="710" type="line"/>
      <point x="450" y="710" type="line"/>
      <point x="450" y="-1" type="line"/>
      <point x="565" y="-29" type="line"/>
    </contour>
    <contour>
      <point x="521" y="209" type="curve"/>
      <point x="521" y="209"/>
      <point x="474" y="268"/>
      <point x="477" y="271" type="curve"/>
      <point x="473" y="155"/>
      <point x="345" y="19"/>
      <point x="244" y="67" type="curve" smooth="yes"/>
      <point x="89" y="141"/>
      <point x="219" y="584"/>
      <point x="498" y="387" type="curve"/>
      <point x="498" y="387"/>
      <point x="539" y="437"/>
      <point x="541" y="437" type="curve"/>
      <point x="486" y="460"/>
      <point x="392" y="494"/>
      <point x="316" y="519" type="curve" smooth="yes"/>
      <point x="182" y="564"/>
      <point x="-115" y="216"/>
      <point x="171" y="25" type="curve" smooth="yes"/>
      <point x="341" y="-88"/>
      <point x="463" y="-26"/>
    </contour>
  </outline>
</glyph>
<glyph name="e" format="1">
  <advance width="580"/>
  <unicode hex="0065"/>
  <outline>
    <contour>
      <point x="288" y="507" type="move" name="top"/>
    </contour>
    <contour>
      <point x="304" y="43" type="move" name="ogonek"/>
    </contour>
    <contour>
      <point x="448" y="151" type="curve" smooth="yes"/>
      <point x="449" y="152"/>
      <point x="531" y="90"/>
      <point x="531" y="90" type="curve"/>
      <point x="404" y="-41"/>
      <point x="291" y="-48"/>
      <point x="194" y="7" type="curve" smooth="yes"/>
      <point x="-15" y="125"/>
      <point x="40" y="489"/>
      <point x="297" y="489" type="curve" smooth="yes"/>
      <point x="332" y="489"/>
      <point x="438" y="431"/>
      <point x="527" y="316" type="curve"/>
      <point x="525" y="298"/>
      <point x="195" y="108"/>
      <point x="195" y="108" type="curve"/>
      <point x="263" y="13"/>
      <point x="365" y="73"/>
    </contour>
    <contour>
      <point x="323" y="395" type="curve" smooth="yes"/>
      <point x="257" y="395"/>
      <point x="192" y="299"/>
      <point x="178" y="211" type="curve"/>
      <point x="422" y="351" type="line"/>
      <point x="383" y="374"/>
      <point x="331" y="395"/>
    </contour>
  </outline>
</glyph>
<glyph name="h" format="1">
  <advance width="583"/>
  <unicode hex="0068"/>
  <outline>
    <contour>
      <point x="152" y="295" type="curve"/>
      <point x="201" y="400"/>
      <point x="355" y="458"/>
      <point x="401" y="382" type="curve"/>
      <point x="411" y="362"/>
      <point x="408" y="-1"/>
      <point x="408" y="-1" type="curve"/>
      <point x="408" y="-1"/>
      <point x="523" y="-29"/>
      <point x="522" y="-29" type="curve" smooth="yes"/>
      <point x="522" y="-29"/>
      <point x="523" y="314"/>
      <point x="518" y="347" type="curve" smooth="yes"/>
      <point x="512" y="383"/>
      <point x="394" y="529"/>
      <point x="350" y="532" type="curve" smooth="yes"/>
      <point x="248" y="539"/>
      <point x="118" y="370"/>
      <point x="118" y="370" type="curve"/>
      <point x="119" y="370"/>
      <point x="142" y="249"/>
    </contour>
    <contour>
      <point x="170" y="710" type="line"/>
      <point x="55" y="710" type="line"/>
      <point x="55" y="-1" type="line"/>
      <point x="170" y="-29" type="line"/>
    </contour>
  </outline>
</glyph>
<glyph name="i" format="1">
  <advance width="251"/>
  <unicode hex="0069"/>
  <outline>
    <contour>
      <point x="41" y="7" type="move" name="ogonek"/>
    </contour>
    <contour>
      <point x="180" y="450" type="line"/>
      <point x="65" y="478" type="line"/>
      <point x="65" y="-1" type="line"/>
      <point x="180" y="-29" type="line"/>
    </contour>
    <contour>
      <point x="122" y="529" type="curve"/>
      <point x="94" y="542"/>
      <point x="63" y="568"/>
      <point x="46" y="602" type="curve"/>
      <point x="49" y="625"/>
      <point x="100" y="667"/>
      <point x="121" y="672" type="curve"/>
      <point x="166" y="652"/>
      <point x="187" y="619"/>
      <point x="196" y="601" type="curve"/>
      <point x="187" y="578"/>
      <point x="163" y="550"/>
    </contour>
  </outline>
</glyph>
<glyph name="j" format="1">
  <advance width="252"/>
  <unicode hex="006A"/>
  <outline>
    <contour>
      <point x="125" y="539" type="curve"/>
      <point x="166" y="560"/>
      <point x="190" y="588"/>
      <point x="199" y="611" type="curve"/>
      <point x="190" y="629"/>
      <point x="169" y="662"/>
      <point x="124" y="682" type="curve"/>
      <point x="103" y="677"/>
      <point x="52" y="635"/>
      <point x="49" y="612" type="curve"/>
      <point x="66" y="578"/>
      <point x="97" y="552"/>
    </contour>
    <contour>
      <point x="183" y="-75" type="line"/>
      <point x="183" y="-136"/>
      <point x="55" y="-246"/>
      <point x="-17" y="-232" type="curve" smooth="yes"/>
      <point x="-47" y="-226"/>
      <point x="-110" y="-197"/>
      <point x="-176" y="-168" type="curve"/>
      <point x="-158" y="-132" type="line"/>
      <point x="2" y="-211"/>
      <point x="71" y="-87"/>
      <point x="71" y="-8" type="curve" smooth="yes"/>
      <point x="68" y="478" type="line"/>
      <point x="183" y="450" type="line"/>
    </contour>
  </outline>
</glyph>
<glyph name="o" format="1">
  <advance width="636"/>
  <unicode hex="006F"/>
  <outline>
    <contour>
      <point x="362" y="482" type="move" name="top"/>
    </contour>
    <contour>
      <point x="489" y="391" type="curve" smooth="yes"/>
      <point x="680" y="232"/>
      <point x="512" y="-148"/>
      <point x="241" y="6" type="curve" smooth="yes"/>
      <point x="200" y="30"/>
      <point x="183" y="45"/>
      <point x="151" y="73" type="curve" smooth="yes"/>
      <point x="-63" y="261"/>
      <point x="164" y="588"/>
      <point x="390" y="461" type="curve" smooth="yes"/>
      <point x="435" y="436"/>
      <point x="458" y="417"/>
    </contour>
    <contour>
      <point x="409" y="373" type="curve" smooth="yes"/>
      <point x="250" y="484"/>
      <point x="82" y="177"/>
      <point x="241" y="77" type="curve" smooth="yes"/>
      <point x="394" y="-19"/>
      <point x="552" y="273"/>
    </contour>
  </outline>
</glyph>
<glyph name="p" format="1">
  <advance width="623"/>
  <unicode hex="0070"/>
  <outline>
    <contour>
      <point x="175" y="522" type="line"/>
      <point x="60" y="522" type="line"/>
      <point x="60" y="-189" type="line"/>
      <point x="175" y="-217" type="line"/>
    </contour>
    <contour>
      <point x="102" y="287" type="curve"/>
      <point x="102" y="287"/>
      <point x="149" y="228"/>
      <point x="146" y="225" type="curve"/>
      <point x="150" y="341"/>
      <point x="278" y="477"/>
      <point x="379" y="429" type="curve" smooth="yes"/>
      <point x="534" y="355"/>
      <point x="402" y="-125"/>
      <point x="132" y="158" type="curve"/>
      <point x="132" y="158"/>
      <point x="97" y="105"/>
      <point x="95" y="105" type="curve"/>
      <point x="150" y="82"/>
      <point x="231" y="2"/>
      <point x="307" y="-23" type="curve" smooth="yes"/>
      <point x="441" y="-68"/>
      <point x="738" y="280"/>
      <point x="452" y="471" type="curve" smooth="yes"/>
      <point x="282" y="584"/>
      <point x="160" y="522"/>
    </contour>
  </outline>
</glyph>
<glyph name="x" format="1">
  <advance width="510"/>
  <unicode hex="0078"/>
  <outline>
    <contour>
      <point x="476" y="450" type="line"/>
      <point x="361" y="478" type="line"/>
      <point x="251" y="312" type="line"/>
      <point x="151" y="450" type="line"/>
      <point x="36" y="478" type="line"/>
      <point x="206" y="243" type="line"/>
      <point x="45" y="-1" type="line"/>
      <point x="160" y="-29" type="line"/>
      <point x="276" y="147" type="line"/>
      <point x="384" y="-1" type="line"/>
      <point x="499" y="-29" type="line"/>
      <point x="321" y="215" type="line"/>
    </contour>
  </outline>
</glyph>
<glyph name="ordfeminine" format="1">
  <advance width="447"/>
  <unicode hex="00AA"/>
  <outline>
    <contour>
      <point x="175" y="454" type="curve" smooth="yes"/>
      <point x="213" y="432"/>
      <point x="297" y="521"/>
      <point x="305" y="568" type="curve"/>
      <point x="315" y="619"/>
      <point x="311" y="641"/>
      <point x="299" y="650" type="curve" smooth="yes"/>
      <point x="247" y="688"/>
      <point x="107" y="493"/>
    </contour>
    <contour>
      <point x="310" y="405" type="line"/>
      <point x="306" y="412"/>
      <point x="302" y="423"/>
      <point x="300" y="439" type="curve"/>
      <point x="272" y="402"/>
      <point x="244" y="380"/>
      <point x="188" y="406" type="curve" smooth="yes"/>
      <point x="165" y="417"/>
      <point x="132" y="434"/>
      <point x="103" y="467" type="curve" smooth="yes"/>
      <point x="33" y="547"/>
      <point x="178" y="766"/>
      <point x="308" y="692" type="curve" smooth="yes"/>
      <point x="338" y="675"/>
      <point x="359" y="667"/>
      <point x="387" y="638" type="curve" smooth="yes"/>
      <point x="403" y="620"/>
      <point x="388" y="494"/>
      <point x="386" y="478" type="curve" smooth="yes"/>
      <point x="383" y="449"/>
      <point x="389" y="402"/>
      <point x="398" y="388" type="curve"/>
    </contour>
  </outline>
</glyph>
<glyph name="guillemotleft" format="1">
  <advance width="675"/>
  <unicode hex="00AB"/>
  <outline>
    <contour>
      <point x="10" y="285" type="line"/>
      <point x="265" y="67" type="line"/>
      <point x="312" y="119" type="line"/>
      <point x="137" y="262" type="line"/>
      <point x="319" y="421" type="line"/>
      <point x="227" y="489" type="line"/>
    </contour>
    <contour>
      <point x="306" y="285" type="line"/>
      <point x="561" y="67" type="line"/>
      <point x="608" y="119" type="line"/>
      <point x="433" y="262" type="line"/>
      <point x="615" y="421" type="line"/>
      <point x="523" y="489" type="line"/>
    </contour>
  </outline>
</glyph>
<glyph name="macron" format="1">
  <advance width="377"/>
  <unicode hex="00AF"/>
  <outline>
    <contour>
      <point x="58" y="543" type="line"/>
      <point x="349" y="543" type="line"/>
      <point x="326" y="601" type="line"/>
      <point x="36" y="601" type="line"/>
    </contour>
  </outline>
</glyph>
<glyph name="degree" format="1">
  <advance width="463"/>
  <unicode hex="00B0"/>
  <outline>
    <contour>
      <point x="337" y="637" type="curve" smooth="yes"/>
      <point x="422" y="582"/>
      <point x="332" y="399"/>
      <point x="243" y="451" type="curve" smooth="yes"/>
      <point x="154" y="503"/>
      <point x="253" y="692"/>
    </contour>
    <contour>
      <point x="411" y="638" type="curve" smooth="yes"/>
      <point x="380" y="664"/>
      <point x="354" y="679"/>
      <point x="310" y="701" type="curve" smooth="yes"/>
      <point x="195" y="759"/>
      <point x="44" y="555"/>
      <point x="178" y="447" type="curve" smooth="yes"/>
      <point x="196" y="432"/>
      <point x="210" y="420"/>
      <point x="249" y="401" type="curve" smooth="yes"/>
      <point x="400" y="325"/>
      <point x="513" y="552"/>
    </contour>
  </outline>
</glyph>
<glyph name="questiondown" format="1">
  <advance width="396"/>
  <unicode hex="00BF"/>
  <outline>
    <contour>
      <point x="467" y="-172" type="line"/>
      <point x="424" y="-228"/>
      <point x="292" y="-276"/>
      <point x="238" y="-243" type="curve" smooth="yes"/>
      <point x="169" y="-201"/>
      <point x="73" y="-87"/>
      <point x="61" y="-54" type="curve" smooth="yes"/>
      <point x="29" y="36"/>
      <point x="167" y="171"/>
      <point x="258" y="271" type="curve"/>
      <point x="352" y="190" type="line"/>
      <point x="341" y="179"/>
      <point x="92" y="-50"/>
      <point x="179" y="-135" type="curve" smooth="yes"/>
      <point x="230" y="-185"/>
      <point x="347" y="-132"/>
      <point x="389" y="-88" type="curve"/>
    </contour>
    <contour>
      <point x="257" y="477" type="curve"/>
      <point x="285" y="464"/>
      <point x="316" y="438"/>
      <point x="333" y="404" type="curve"/>
      <point x="330" y="381"/>
      <point x="279" y="339"/>
      <point x="258" y="334" type="curve"/>
      <point x="213" y="354"/>
      <point x="192" y="387"/>
      <point x="183" y="405" type="curve"/>
      <point x="192" y="428"/>
      <point x="216" y="456"/>
    </contour>
  </outline>
</glyph>
<glyph name="Atilde" format="1">
  <advance width="657"/>
  <unicode hex="00C3"/>
  <outline>
    <contour>
      <point x="332" y="743" type="move" name="top"/>
    </contour>
    <contour>
      <point x="397" y="8" type="move" name="ogonek"/>
    </contour>
    <component base="A"/>
    <component base="tilde" xOffset="97" yOffset="175"/>
  </outline>
</glyph>
<glyph name="AE" format="1">
  <advance width="899"/>
  <unicode hex="00C6"/>
  <outline>
    <contour>
      <point x="355" y="0" type="move" name="top"/>
    </contour>
    <contour>
      <point x="355" y="0" type="move" name="ogonek"/>
    </contour>
  </outline>
</glyph>
<glyph name="Ecircumflex" format="1">
  <advance width="551"/>
  <unicode hex="00CA"/>
  <outline>
    <contour>
      <point x="342" y="743" type="move" name="top"/>
    </contour>
    <contour>
      <point x="440" y="101" type="move" name="ogonek"/>
    </contour>
  </outline>
</glyph>
<glyph name="Ntilde" format="1">
  <advance width="762"/>
  <unicode hex="00D1"/>
  <outline>
    <contour>
      <point x="381" y="743" type="move" name="top"/>
    </contour>
    <component base="N" xOffset="15"/>
    <component base="tilde" xOffset="161" yOffset="169"/>
  </outline>
</glyph>
<glyph name="germandbls" format="1">
  <advance width="586"/>
  <unicode hex="00DF"/>
  <outline>
    <contour>
      <point x="278" y="355" type="curve"/>
      <point x="357" y="443"/>
      <point x="450" y="489"/>
      <point x="360" y="574" type="curve" smooth="yes"/>
      <point x="319" y="613"/>
      <point x="190" y="597"/>
      <point x="191" y="475" type="curve" smooth="yes"/>
      <point x="192" y="386"/>
      <point x="193" y="-29"/>
      <point x="193" y="-29" type="curve"/>
      <point x="76" y="0" type="line"/>
      <point x="76" y="0"/>
      <point x="77" y="408"/>
      <point x="76" y="513" type="curve" smooth="yes"/>
      <point x="75" y="688"/>
      <point x="282" y="700"/>
      <point x="318" y="677" type="curve" smooth="yes"/>
      <point x="363" y="648"/>
      <point x="484" y="551"/>
      <point x="501" y="500" type="curve" smooth="yes"/>
      <point x="519" y="445"/>
      <point x="437" y="358"/>
      <point x="394" y="315" type="curve"/>
      <point x="429" y="293"/>
      <point x="480" y="271"/>
      <point x="501" y="254" type="curve" smooth="yes"/>
      <point x="639" y="143"/>
      <point x="513" y="-29"/>
      <point x="374" y="-29" type="curve" smooth="yes"/>
      <point x="347" y="-29"/>
      <point x="281" y="23"/>
      <point x="227" y="74" type="curve"/>
      <point x="247" y="111" type="line"/>
      <point x="367" y="35"/>
      <point x="442" y="103"/>
      <point x="444" y="203" type="curve" smooth="yes"/>
      <point x="445" y="238"/>
      <point x="296" y="331"/>
    </contour>
  </outline>
</glyph>
<glyph name="agrave" format="1">
  <advance width="518"/>
  <unicode hex="00E0"/>
  <outline>
    <contour>
      <point x="374" y="507" type="move" name="top"/>
    </contour>
    <contour>
      <point x="344" y="7" type="move" name="ogonek"/>
    </contour>
  </outline>
</glyph>
<glyph name="ecircumflex" format="1">
  <advance width="454"/>
  <unicode hex="00EA"/>
  <outline>
    <contour>
      <point x="263" y="507" type="move" name="top"/>
    </contour>
    <contour>
      <point x="279" y="43" type="move" name="ogonek"/>
    </contour>
  </outline>
</glyph>
<glyph name="iacute" format="1">
  <advance width="241"/>
  <unicode hex="00ED"/>
  <outline>
    <contour>
      <point x="183" y="507" type="move" name="top"/>
    </contour>
    <contour>
      <point x="53" y="7" type="move" name="ogonek"/>
    </contour>
    <component base="acute" xOffset="-118"/>
    <component base="dotlessi"/>
  </outline>
</glyph>
<glyph name="eth" format="1">
  <advance width="604"/>
  <unicode hex="00F0"/>
  <outline>
    <contour>
      <point x="495" y="640" type="line"/>
      <point x="562" y="585" type="line"/>
      <point x="291" y="493" type="line"/>
      <point x="221" y="551" type="line"/>
    </contour>
    <contour>
      <point x="337" y="710" type="line"/>
      <point x="494" y="594"/>
      <point x="569" y="372"/>
      <point x="552" y="201" type="curve" smooth="yes"/>
      <point x="539" y="72"/>
      <point x="473" y="-28"/>
      <point x="350" y="-28" type="curve" smooth="yes"/>
      <point x="244" y="-28"/>
      <point x="113" y="98"/>
      <point x="76" y="170" type="curve" smooth="yes"/>
      <point x="31" y="255"/>
      <point x="226" y="472"/>
      <point x="294" y="449" type="curve" smooth="yes"/>
      <point x="342" y="433"/>
      <point x="427" y="377"/>
      <point x="489" y="338" type="curve"/>
      <point x="476" y="291" type="line"/>
      <point x="218" y="470"/>
      <point x="129" y="130"/>
      <point x="244" y="73" type="curve" smooth="yes"/>
      <point x="328" y="32"/>
      <point x="416" y="90"/>
      <point x="424" y="245" type="curve" smooth="yes"/>
      <point x="431" y="373"/>
      <point x="382" y="535"/>
      <point x="242" y="642" type="curve"/>
    </contour>
  </outline>
</glyph>
<glyph name="ntilde" format="1">
  <advance width="610"/>
  <unicode hex="00F1"/>
  <outline>
    <contour>
      <point x="287" y="507" type="move" name="top"/>
    </contour>
    <component base="n"/>
    <component base="tilde" xOffset="91" yOffset="-10"/>
  </outline>
</glyph>
<glyph name="ograve" format="1">
  <advance width="452"/>
  <unicode hex="00F2"/>
  <outline>
    <contour>
      <point x="287" y="507" type="move" name="top"/>
    </contour>
  </outline>
</glyph>
<glyph name="otilde" format="1">
  <advance width="452"/>
  <unicode hex="00F5"/>
  <outline>
    <contour>
      <point x="287" y="507" type="move" name="top"/>
    </contour>
  </outline>
</glyph>
<glyph name="oslash" format="1">
  <advance width="590"/>
  <unicode hex="00F8"/>
  <outline>
    <contour>
      <point x="46" y="29" type="line"/>
      <point x="132" y="-29" type="line"/>
      <point x="538" y="441" type="line"/>
      <point x="455" y="496" type="line"/>
    </contour>
    <component base="o"/>
  </outline>
</glyph>
<glyph name="yacute" format="1">
  <advance width="554"/>
  <unicode hex="00FD"/>
  <outline>
    <contour>
      <point x="310" y="507" type="move" name="top"/>
    </contour>
    <component base="y"/>
    <component base="acute" xOffset="49"/>
  </outline>
</glyph>
<glyph name="Emacron" format="1">
  <advance width="647"/>
  <unicode hex="0112"/>
  <outline>
    <contour>
      <point x="342" y="743" type="move" name="top"/>
    </contour>
    <contour>
      <point x="440" y="101" type="move" name="ogonek"/>
    </contour>
    <component base="E"/>
    <component base="macron" xOffset="120" yOffset="167"/>
  </outline>
</glyph>
<glyph name="Lcaron" format="1">
  <advance width="670"/>
  <unicode hex="013D"/>
  <outline>
    <contour>
      <point x="338" y="743" type="move" name="top"/>
    </contour>
    <contour>
      <point x="391" y="401" type="line"/>
      <point x="420" y="434"/>
      <point x="469" y="536"/>
      <point x="477" y="587" type="curve"/>
      <point x="479" y="615"/>
      <point x="434" y="654"/>
      <point x="402" y="669" type="curve"/>
      <point x="381" y="664"/>
      <point x="330" y="622"/>
      <point x="327" y="599" type="curve"/>
      <point x="337" y="579"/>
      <point x="356" y="558"/>
      <point x="372" y="544" type="curve"/>
      <point x="374" y="523"/>
      <point x="362" y="466"/>
      <point x="350" y="428" type="curve"/>
    </contour>
    <component base="L"/>
  </outline>
</glyph>
<glyph name="ncaron" format="1">
  <advance width="552"/>
  <unicode hex="0148"/>
  <outline>
    <contour>
      <point x="287" y="507" type="move" name="top"/>
    </contour>
  </outline>
</glyph>
<glyph name="tcedilla" format="1">
  <advance width="427"/>
  <unicode hex="0163"/>
  <outline>
    <contour>
      <point x="124" y="7" type="move" name="cedilla"/>
    </contour>
    <component base="t" xOffset="13"/>
    <component base="cedilla" xOffset="30"/>
  </outline>
</glyph>
<glyph name="Umacron" format="1">
  <advance width="666"/>
  <unicode hex="016A"/>
  <outline>
    <contour>
      <point x="313" y="743" type="move" name="top"/>
    </contour>
    <contour>
      <point x="241" y="23" type="move" name="ogonek"/>
    </contour>
    <component base="U" xOffset="-20"/>
    <component base="macron" xOffset="131" yOffset="167"/>
  </outline>
</glyph>
<glyph name="uhungarumlaut" format="1">
  <advance width="592"/>
  <unicode hex="0171"/>
  <outline>
    <contour>
      <point x="287" y="507" type="move" name="top"/>
    </contour>
    <contour>
      <point x="283" y="7" type="move" name="ogonek"/>
    </contour>
    <component base="u"/>
    <component base="hungarumlaut" xOffset="107"/>
  </outline>
</glyph>
<glyph name="Uogonek" format="1">
  <advance width="666"/>
  <unicode hex="0172"/>
  <outline>
    <contour>
      <point x="313" y="743" type="move" name="top"/>
    </contour>
    <contour>
      <point x="241" y="23" type="move" name="ogonek"/>
    </contour>
    <component base="ogonek" xOffset="177"/>
    <component base="U" xOffset="-20"/>
  </outline>
</glyph>
<glyph name="Zcaron" format="1">
  <advance width="835"/>
  <unicode hex="017D"/>
  <outline>
    <contour>
      <point x="378" y="743" type="move" name="top"/>
    </contour>
    <contour>
      <point x="82" y="667" type="line"/>
      <point x="672" y="667" type="line"/>
      <point x="752" y="577" type="line"/>
      <point x="267" y="90" type="line"/>
      <point x="698" y="90" type="line"/>
      <point x="778" y="0" type="line"/>
      <point x="162" y="0" type="line"/>
      <point x="83" y="88" type="line"/>
      <point x="81" y="89" type="line"/>
      <point x="82" y="90" type="line"/>
      <point x="558" y="577" type="line"/>
      <point x="162" y="577" type="line"/>
    </contour>
    <contour>
      <point x="427" y="690" type="line"/>
      <point x="277" y="854" type="line"/>
      <point x="310" y="894" type="line"/>
      <point x="416" y="760" type="line"/>
      <point x="557" y="894" type="line"/>
      <point x="616" y="832" type="line"/>
    </contour>
  </outline>
</glyph>
<glyph name="zcaron" format="1">
  <advance width="484"/>
  <unicode hex="017E"/>
  <outline>
    <contour>
      <point x="256" y="507" type="move" name="top"/>
    </contour>
    <contour>
      <point x="5" y="478" type="line"/>
      <point x="402" y="478" type="line"/>
      <point x="432" y="405" type="line"/>
      <point x="428" y="405" type="line"/>
      <point x="432" y="404" type="line"/>
      <point x="265" y="192" type="line"/>
      <point x="322" y="164"/>
      <point x="383" y="135"/>
      <point x="398" y="128" type="curve" smooth="yes"/>
      <point x="580" y="36"/>
      <point x="353" y="-276"/>
      <point x="187" y="-248" type="curve" smooth="yes"/>
      <point x="146" y="-241"/>
      <point x="62" y="-187"/>
      <point x="7" y="-133" type="curve"/>
      <point x="30" y="-109" type="line"/>
      <point x="49" y="-122"/>
      <point x="77" y="-141"/>
      <point x="94" y="-148" type="curve" smooth="yes"/>
      <point x="293" y="-226"/>
      <point x="400" y="59"/>
      <point x="323" y="112" type="curve" smooth="yes"/>
      <point x="288" y="136"/>
      <point x="182" y="178"/>
      <point x="146" y="192" type="curve" smooth="yes"/>
      <point x="134" y="197" type="line"/>
      <point x="296" y="405" type="line"/>
      <point x="35" y="405" type="line"/>
    </contour>
    <contour>
      <point x="216" y="517" type="line"/>
      <point x="66" y="681" type="line"/>
      <point x="99" y="721" type="line"/>
      <point x="205" y="587" type="line"/>
      <point x="346" y="721" type="line"/>
      <point x="405" y="659" type="line"/>
    </contour>
  </outline>
</glyph>
<glyph name="dvmvL" format="1">
  <advance width="0"/>
  <unicode hex="0962"/>
  <outline>
    <contour>
      <point x="-231" y="-114" type="line"/>
      <point x="-411" y="-29"/>
      <point x="-375" y="-227"/>
      <point x="-294" y="-279" type="curve"/>
      <point x="-309" y="-301" type="line"/>
      <point x="-386" y="-263"/>
      <point x="-440" y="-168"/>
      <point x="-446" y="-127" type="curve" smooth="yes"/>
      <point x="-451" y="-84"/>
      <point x="-351" y="-11"/>
      <point x="-314" y="-23" type="curve" smooth="yes"/>
      <point x="-286" y="-31"/>
      <point x="-242" y="-73"/>
      <point x="-217" y="-98" type="curve"/>
    </contour>
    <contour>
      <point x="40" y="-326" type="line"/>
      <point x="-25" y="-381"/>
      <point x="-69" y="-364"/>
      <point x="-90" y="-347" type="curve" smooth="yes"/>
      <point x="-121" y="-323"/>
      <point x="-144" y="-294"/>
      <point x="-166" y="-264" type="curve" smooth="yes"/>
      <point x="-221" y="-189"/>
      <point x="-4" y="-151"/>
      <point x="-56" y="-100" type="curve" smooth="yes"/>
      <point x="-102" y="-56"/>
      <point x="-179" y="-140"/>
      <point x="-194" y="-200" type="curve"/>
      <point x="-262" y="-159" type="line"/>
      <point x="-255" y="-129"/>
      <point x="-199" y="-35"/>
      <point x="-118" y="-32" type="curve" smooth="yes"/>
      <point x="-93" y="-31"/>
      <point x="-1" y="-93"/>
      <point x="18" y="-123" type="curve" smooth="yes"/>
      <point x="75" y="-211"/>
      <point x="-146" y="-219"/>
      <point x="-99" y="-292" type="curve" smooth="yes"/>
      <point x="-85" y="-314"/>
      <point x="-47" y="-319"/>
      <point x="-19" y="-282" type="curve"/>
    </contour>
  </outline>
</glyph>
<glyph name="quotedblleft" format="1">
  <advance width="484"/>
  <unicode hex="201C"/>
  <outline>
    <contour>
      <point x="385" y="809" type="line"/>
      <point x="356" y="776"/>
      <point x="307" y="674"/>
      <point x="299" y="623" type="curve"/>
      <point x="297" y="595"/>
      <point x="342" y="556"/>
      <point x="374" y="541" type="curve"/>
      <point x="395" y="546"/>
      <point x="446" y="588"/>
      <point x="449" y="611" type="curve"/>
      <point x="439" y="631"/>
      <point x="420" y="652"/>
      <point x="404" y="666" type="curve"/>
      <point x="402" y="687"/>
      <point x="414" y="744"/>
      <point x="426" y="782" type="curve"/>
    </contour>
    <contour>
      <point x="191" y="809" type="line"/>
      <point x="162" y="776"/>
      <point x="113" y="674"/>
      <point x="105" y="623" type="curve"/>
      <point x="103" y="595"/>
      <point x="148" y="556"/>
      <point x="180" y="541" type="curve"/>
      <point x="201" y="546"/>
      <point x="252" y="588"/>
      <point x="255" y="611" type="curve"/>
      <point x="245" y="631"/>
      <point x="226" y="652"/>
      <point x="210" y="666" type="curve"/>
      <point x="208" y="687"/>
      <point x="220" y="744"/>
      <point x="232" y="782" type="curve"/>
    </contour>
  </outline>
</glyph>
<glyph name="quotedblright" format="1">
  <advance width="450"/>
  <unicode hex="201D"/>
  <outline>
    <contour>
      <point x="164" y="541" type="line"/>
      <point x="193" y="574"/>
      <point x="242" y="676"/>
      <point x="250" y="727" type="curve"/>
      <point x="252" y="755"/>
      <point x="207" y="794"/>
      <point x="175" y="809" type="curve"/>
      <point x="154" y="804"/>
      <point x="103" y="762"/>
      <point x="100" y="739" type="curve"/>
      <point x="110" y="719"/>
      <point x="129" y="698"/>
      <point x="145" y="684" type="curve"/>
      <point x="147" y="663"/>
      <point x="135" y="606"/>
      <point x="123" y="568" type="curve"/>
    </contour>
    <contour>
      <point x="358" y="541" type="line"/>
      <point x="387" y="574"/>
      <point x="436" y="676"/>
      <point x="444" y="727" type="curve"/>
      <point x="446" y="755"/>
      <point x="401" y="794"/>
      <point x="369" y="809" type="curve"/>
      <point x="348" y="804"/>
      <point x="297" y="762"/>
      <point x="294" y="739" type="curve"/>
      <point x="304" y="719"/>
      <point x="323" y="698"/>
      <point x="339" y="684" type="curve"/>
      <point x="341" y="663"/>
      <point x="329" y="606"/>
      <point x="317" y="568" type="curve"/>
    </contour>
  </outline>
</glyph>
<glyph name="perthousand" format="1">
  <advance width="1263"/>
  <unicode hex="2030"/>
  <outline>
    <contour>
      <point x="1120" y="256" type="curve" smooth="yes"/>
      <point x="1216" y="194"/>
      <point x="1114" y="-12"/>
      <point x="1014" y="47" type="curve" smooth="yes"/>
      <point x="914" y="105"/>
      <point x="1026" y="318"/>
    </contour>
    <contour>
      <point x="1203" y="257" type="curve" smooth="yes"/>
      <point x="1168" y="286"/>
      <point x="1139" y="303"/>
      <point x="1090" y="328" type="curve" smooth="yes"/>
      <point x="960" y="393"/>
      <point x="791" y="164"/>
      <point x="941" y="42" type="curve" smooth="yes"/>
      <point x="962" y="25"/>
      <point x="977" y="12"/>
      <point x="1021" y="-10" type="curve" smooth="yes"/>
      <point x="1191" y="-95"/>
      <point x="1318" y="160"/>
    </contour>
    <contour>
      <point x="717" y="256" type="curve" smooth="yes"/>
      <point x="813" y="194"/>
      <point x="711" y="-12"/>
      <point x="611" y="47" type="curve" smooth="yes"/>
      <point x="511" y="105"/>
      <point x="623" y="318"/>
    </contour>
    <contour>
      <point x="800" y="257" type="curve" smooth="yes"/>
      <point x="765" y="286"/>
      <point x="736" y="303"/>
      <point x="687" y="328" type="curve" smooth="yes"/>
      <point x="557" y="393"/>
      <point x="388" y="164"/>
      <point x="538" y="42" type="curve" smooth="yes"/>
      <point x="559" y="25"/>
      <point x="574" y="12"/>
      <point x="618" y="-10" type="curve" smooth="yes"/>
      <point x="788" y="-95"/>
      <point x="915" y="160"/>
    </contour>
    <contour>
      <point x="255" y="660" type="line"/>
      <point x="398" y="584"/>
      <point x="525" y="540"/>
      <point x="713" y="682" type="curve"/>
      <point x="621" y="715" type="line"/>
      <point x="538" y="641"/>
      <point x="386" y="614"/>
      <point x="203" y="706" type="curve"/>
    </contour>
    <contour>
      <point x="713" y="682" type="line"/>
      <point x="621" y="715" type="line"/>
      <point x="173" y="1" type="line"/>
      <point x="263" y="-30" type="line"/>
    </contour>
    <contour>
      <point x="248" y="628" type="curve" smooth="yes"/>
      <point x="344" y="566"/>
      <point x="242" y="360"/>
      <point x="142" y="419" type="curve" smooth="yes"/>
      <point x="42" y="477"/>
      <point x="154" y="690"/>
    </contour>
    <contour>
      <point x="331" y="629" type="curve" smooth="yes"/>
      <point x="296" y="658"/>
      <point x="267" y="675"/>
      <point x="218" y="700" type="curve" smooth="yes"/>
      <point x="88" y="765"/>
      <point x="-81" y="536"/>
      <point x="69" y="414" type="curve" smooth="yes"/>
      <point x="90" y="397"/>
      <point x="105" y="384"/>
      <point x="149" y="362" type="curve" smooth="yes"/>
      <point x="319" y="277"/>
      <point x="446" y="532"/>
    </contour>
  </outline>
</glyph>
<glyph name="litre" format="1">
  <advance width="531"/>
  <unicode hex="2113"/>
  <outline>
    <contour>
      <point x="202" y="542" type="curve" smooth="yes"/>
      <point x="231" y="709"/>
      <point x="316" y="735"/>
      <point x="379" y="698" type="curve" smooth="yes"/>
      <point x="409" y="681"/>
      <point x="487" y="587"/>
      <point x="487" y="570" type="curve" smooth="yes"/>
      <point x="487" y="546"/>
      <point x="423" y="371"/>
      <point x="265" y="265" type="curve"/>
      <point x="257" y="216"/>
      <point x="249" y="166"/>
      <point x="241" y="110" type="curve" smooth="yes"/>
      <point x="231" y="41"/>
      <point x="302" y="17"/>
      <point x="372" y="89" type="curve" smooth="yes"/>
      <point x="378" y="95"/>
      <point x="389" y="50"/>
      <point x="397" y="54" type="curve"/>
      <point x="241" y="-104"/>
      <point x="132" y="-8"/>
      <point x="143" y="89" type="curve" smooth="yes"/>
      <point x="148" y="132"/>
      <point x="152" y="172"/>
      <point x="157" y="210" type="curve"/>
      <point x="125" y="199"/>
      <point x="91" y="190"/>
      <point x="54" y="186" type="curve"/>
      <point x="13" y="218" type="line"/>
      <point x="70" y="234"/>
      <point x="121" y="259"/>
      <point x="166" y="290" type="curve"/>
      <point x="177" y="383"/>
      <point x="188" y="465"/>
    </contour>
    <contour>
      <point x="385" y="625" type="curve" smooth="yes"/>
      <point x="353" y="655"/>
      <point x="297" y="578"/>
      <point x="285" y="435" type="curve" smooth="yes"/>
      <point x="282" y="396" type="line"/>
      <point x="368" y="499"/>
      <point x="403" y="608"/>
    </contour>
  </outline>
</glyph>
<glyph name="radical" format="1">
  <advance width="708"/>
  <unicode hex="221A"/>
  <outline>
    <contour>
      <point x="21" y="221" type="line"/>
      <point x="127" y="372" type="line"/>
      <point x="227" y="332" type="line"/>
      <point x="121" y="181" type="line"/>
    </contour>
    <contour>
      <point x="406" y="-58" type="line"/>
      <point x="291" y="-30" type="line"/>
      <point x="561" y="667" type="line"/>
      <point x="676" y="639" type="line"/>
    </contour>
    <contour>
      <point x="405" y="-58" type="line"/>
      <point x="290" y="-30" type="line"/>
      <point x="129" y="372" type="line"/>
      <point x="244" y="344" type="line"/>
    </contour>
  </outline>
</glyph>
<glyph name="notequal" format="1">
  <advance width="672"/>
  <unicode hex="2260"/>
  <outline>
    <contour>
      <point x="437" y="556" type="line"/>
      <point x="498" y="509" type="line"/>
      <point x="265" y="119" type="line"/>
      <point x="201" y="169" type="line"/>
    </contour>
    <component base="equal"/>
  </outline>
</glyph>
<glyph name="dvAcandra" format="1">
  <advance width="790"/>
  <outline>
    <contour>
      <point x="659" y="809" type="move" name="abvm.bindu"/>
    </contour>
    <component base="dvA"/>
    <component base="dvmEcandra" xOffset="736"/>
  </outline>
</glyph>
<glyph name="dvB_BH_RA" format="1">
  <advance width="985"/>
  <outline>
    <contour>
      <point x="464" y="242" type="line"/>
      <point x="464" y="242"/>
      <point x="366" y="71"/>
      <point x="264" y="71" type="curve" smooth="yes"/>
      <point x="158" y="71"/>
      <point x="83" y="191"/>
      <point x="46" y="263" type="curve" smooth="yes"/>
      <point x="1" y="348"/>
      <point x="188" y="478"/>
      <point x="256" y="456" type="curve" smooth="yes"/>
      <point x="290" y="445"/>
      <point x="424" y="307"/>
      <point x="449" y="262" type="curve"/>
      <point x="441" y="253" type="line"/>
    </contour>
    <contour>
      <point x="-16" y="619" type="line"/>
      <point x="424" y="619" type="line"/>
      <point x="424" y="523" type="line"/>
      <point x="-16" y="523" type="line"/>
    </contour>
    <contour>
      <point x="825" y="138" type="line"/>
      <point x="804" y="82"/>
      <point x="727" y="0"/>
      <point x="660" y="-69" type="curve"/>
      <point x="576" y="-3" type="line"/>
      <point x="680" y="62"/>
      <point x="735" y="111"/>
      <point x="797" y="184" type="curve"/>
    </contour>
    <contour>
      <point x="143" y="201" type="curve"/>
      <point x="162" y="179"/>
      <point x="223" y="163"/>
      <point x="309" y="195" type="curve"/>
      <point x="172" y="327" type="line"/>
      <point x="133" y="289"/>
      <point x="119" y="226"/>
    </contour>
    <contour>
      <point x="203" y="348" type="curve"/>
      <point x="345" y="211" type="line"/>
      <point x="364" y="220"/>
      <point x="384" y="233"/>
      <point x="405" y="247" type="curve"/>
      <point x="323" y="357"/>
      <point x="252" y="371"/>
    </contour>
    <component base="dvBHA" xOffset="294"/>
  </outline>
</glyph>
<glyph name="dvB_DA" format="1">
  <advance width="964"/>
  <outline>
    <contour>
      <point x="837" y="662" type="move" name="abvm.bindu"/>
    </contour>
    <contour>
      <point x="632" y="-231" type="move" name="blwm.virama"/>
    </contour>
    <contour>
      <point x="836" y="672" type="move" name="abvm.e"/>
    </contour>
    <contour>
      <point x="852" y="-160" type="move" name="blwm.u"/>
    </contour>
    <component base="dvDA" xOffset="405"/>
  </outline>
</glyph>
<glyph name="dvB_JxA" format="1">
  <advance width="1178"/>
  <outline>
    <contour>
      <point x="421" y="314" type="line"/>
      <point x="271" y="445"/>
      <point x="97" y="258"/>
      <point x="151" y="201" type="curve" smooth="yes"/>
      <point x="178" y="171"/>
      <point x="308" y="125"/>
      <point x="421" y="311" type="curve"/>
      <point x="474" y="241" type="line"/>
      <point x="474" y="241"/>
      <point x="374" y="72"/>
      <point x="272" y="71" type="curve"/>
      <point x="166" y="71"/>
      <point x="91" y="191"/>
      <point x="54" y="263" type="curve" smooth="yes"/>
      <point x="9" y="348"/>
      <point x="238" y="491"/>
      <point x="302" y="459" type="curve" smooth="yes"/>
      <point x="338" y="441"/>
      <point x="400" y="402"/>
      <point x="421" y="364" type="curve"/>
    </contour>
    <contour>
      <point x="167" y="340" type="line"/>
      <point x="191" y="368" type="line"/>
      <point x="389" y="176" type="line"/>
      <point x="365" y="149" type="line"/>
    </contour>
    <contour>
      <point x="-8" y="619" type="line"/>
      <point x="594" y="619" type="line"/>
      <point x="594" y="523" type="line"/>
      <point x="-8" y="523" type="line"/>
    </contour>
    <component base="dvJA" xOffset="348"/>
    <component base="dvNukta" xOffset="825" yOffset="155"/>
  </outline>
</glyph>
<glyph name="dvCHA" format="1">
  <advance width="778"/>
  <outline>
    <contour>
      <point x="608" y="616" type="move" name="abvm.bindu"/>
    </contour>
    <contour>
      <point x="341" y="0" type="move" name="blwm.virama"/>
    </contour>
    <contour>
      <point x="590" y="620" type="move" name="abvm.e"/>
    </contour>
    <contour>
      <point x="391" y="-10" type="move" name="blwm.u"/>
    </contour>
    <contour>
      <point x="-8" y="619" type="line"/>
      <point x="787" y="619" type="line"/>
      <point x="787" y="523" type="line"/>
      <point x="608" y="523" type="line"/>
      <point x="641" y="497"/>
      <point x="694" y="421"/>
      <point x="708" y="397" type="curve" smooth="yes"/>
      <point x="751" y="321"/>
      <point x="702" y="211"/>
      <point x="622" y="123" type="curve"/>
      <point x="671" y="73"/>
      <point x="732" y="11"/>
      <point x="732" y="11" type="curve"/>
      <point x="700" y="-20" type="line"/>
      <point x="599" y="98" type="line"/>
      <point x="498" y="0"/>
      <point x="361" y="-61"/>
      <point x="293" y="7" type="curve" smooth="yes"/>
      <point x="234" y="66"/>
      <point x="197" y="112"/>
      <point x="147" y="177" type="curve" smooth="yes"/>
      <point x="120" y="212"/>
      <point x="177" y="271"/>
      <point x="242" y="310" type="curve"/>
      <point x="175" y="350"/>
      <point x="64" y="441"/>
      <point x="185" y="523" type="curve"/>
      <point x="-8" y="523" type="line"/>
    </contour>
    <contour>
      <point x="342" y="351" type="curve"/>
      <point x="404" y="286" type="line"/>
      <point x="309" y="248"/>
      <point x="208" y="169"/>
      <point x="260" y="110" type="curve" smooth="yes"/>
      <point x="321" y="40"/>
      <point x="435" y="98"/>
      <point x="523" y="185" type="curve"/>
      <point x="492" y="216"/>
      <point x="459" y="256"/>
      <point x="447" y="276" type="curve" smooth="yes"/>
      <point x="420" y="317"/>
      <point x="478" y="482"/>
      <point x="556" y="523" type="curve"/>
      <point x="359" y="523" type="line"/>
      <point x="232" y="466"/>
      <point x="162" y="418"/>
      <point x="270" y="325" type="curve"/>
      <point x="296" y="339"/>
      <point x="322" y="348"/>
    </contour>
    <contour>
      <point x="626" y="439" type="curve" smooth="yes"/>
      <point x="592" y="474"/>
      <point x="490" y="306"/>
      <point x="545" y="208" type="curve"/>
      <point x="621" y="292"/>
      <point x="668" y="394"/>
    </contour>
  </outline>
</glyph>
<glyph name="dvCandrabindu" format="1">
  <advance width="0"/>
  <outline>
    <contour>
      <point x="-82" y="662" type="move" name="_abvm.bindu"/>
    </contour>
    <component base="dvAnusvara" xOffset="-24" yOffset="102"/>
    <component base="dvmEcandra" xOffset="10"/>
  </outline>
</glyph>
<glyph name="dvDA_mvR" format="1">
  <advance width="504"/>
  <outline>
    <contour>
      <point x="470" y="65" type="line"/>
      <point x="387" y="16"/>
      <point x="245" y="-40"/>
      <point x="202" y="-10" type="curve" smooth="yes"/>
      <point x="139" y="34"/>
      <point x="110" y="70"/>
      <point x="58" y="136" type="curve" smooth="yes"/>
      <point x="28" y="174"/>
      <point x="53" y="218"/>
      <point x="104" y="250" type="curve"/>
      <point x="24" y="327"/>
      <point x="43" y="427"/>
      <point x="110" y="454" type="curve" smooth="yes"/>
      <point x="127" y="461"/>
      <point x="248" y="469"/>
      <point x="248" y="469" type="curve"/>
      <point x="249" y="523" type="line"/>
      <point x="-20" y="523" type="line"/>
      <point x="-20" y="619" type="line"/>
      <point x="520" y="619" type="line"/>
      <point x="520" y="523" type="line"/>
      <point x="360" y="523" type="line"/>
      <point x="359" y="391" type="line"/>
      <point x="359" y="391"/>
      <point x="246" y="388"/>
      <point x="205" y="388" type="curve" smooth="yes"/>
      <point x="142" y="388"/>
      <point x="96" y="317"/>
      <point x="145" y="271" type="curve"/>
      <point x="194" y="291"/>
      <point x="254" y="301"/>
      <point x="312" y="292" type="curve"/>
      <point x="379" y="212" type="line"/>
      <point x="215" y="227"/>
      <point x="112" y="162"/>
      <point x="159" y="97" type="curve" smooth="yes"/>
      <point x="179" y="69"/>
      <point x="251" y="55"/>
      <point x="395" y="140" type="curve"/>
    </contour>
  </outline>
</glyph>
<glyph name="dvDDA" format="1">
  <advance width="644"/>
  <outline>
    <contour>
      <point x="429" y="662" type="move" name="abvm.bindu"/>
    </contour>
    <contour>
      <point x="244" y="0" type="move" name="blwm.virama"/>
    </contour>
    <contour>
      <point x="395" y="619" type="move" name="abvm.e"/>
    </contour>
    <contour>
      <point x="252" y="-12" type="move" name="blwm.u"/>
    </contour>
    <contour>
      <point x="-10" y="522" type="line"/>
      <point x="351" y="522" type="line"/>
      <point x="351" y="477" type="line"/>
      <point x="168" y="466" type="line"/>
      <point x="114" y="462"/>
      <point x="55" y="338"/>
      <point x="96" y="293" type="curve" smooth="yes"/>
      <point x="134" y="253"/>
      <point x="192" y="206"/>
      <point x="241" y="166" type="curve" smooth="yes"/>
      <point x="295" y="123"/>
      <point x="452" y="265"/>
      <point x="500" y="217" type="curve" smooth="yes"/>
      <point x="553" y="165"/>
      <point x="445" y="67"/>
      <point x="316" y="67" type="curve" smooth="yes"/>
      <point x="188" y="67"/>
      <point x="74" y="195"/>
      <point x="47" y="227" type="curve"/>
      <point x="27" y="208" type="line"/>
      <point x="48" y="175"/>
      <point x="178" y="-20"/>
      <point x="353" y="-20" type="curve" smooth="yes"/>
      <point x="555" y="-20"/>
      <point x="620" y="129"/>
      <point x="590" y="175" type="curve" smooth="yes"/>
      <point x="561" y="220"/>
      <point x="516" y="279"/>
      <point x="468" y="319" type="curve" smooth="yes"/>
      <point x="454" y="331"/>
      <point x="296" y="278"/>
      <point x="250" y="266" type="curve" smooth="yes"/>
      <point x="164" y="243"/>
      <point x="196" y="389"/>
      <point x="242" y="389" type="curve" smooth="yes"/>
      <point x="463" y="389" type="line"/>
      <point x="463" y="522" type="line"/>
      <point x="649" y="522" type="line"/>
      <point x="649" y="619" type="line"/>
      <point x="-10" y="619" type="line"/>
    </contour>
  </outline>
</glyph>
<glyph name="dvDDHA" format="1">
  <advance width="617"/>
  <outline>
    <contour>
      <point x="475" y="662" type="move" name="abvm.bindu"/>
    </contour>
    <contour>
      <point x="258" y="0" type="move" name="blwm.virama"/>
    </contour>
    <contour>
      <point x="460" y="619" type="move" name="abvm.e"/>
    </contour>
    <contour>
      <point x="258" y="-10" type="move" name="blwm.u"/>
    </contour>
    <contour>
      <point x="165" y="457" type="line"/>
      <point x="88" y="449"/>
      <point x="10" y="261"/>
      <point x="60" y="187" type="curve" smooth="yes"/>
      <point x="102" y="125"/>
      <point x="164" y="75"/>
      <point x="228" y="23" type="curve" smooth="yes"/>
      <point x="261" y="-4"/>
      <point x="293" y="-24"/>
      <point x="343" y="-20" type="curve"/>
      <point x="458" y="-9"/>
      <point x="509" y="55"/>
      <point x="568" y="137" type="curve"/>
      <point x="483" y="212" type="line"/>
      <point x="432" y="151"/>
      <point x="388" y="71"/>
      <point x="278" y="80" type="curve" smooth="yes"/>
      <point x="121" y="92"/>
      <point x="164" y="382"/>
      <point x="269" y="382" type="curve" smooth="yes"/>
      <point x="460" y="382" type="line"/>
      <point x="460" y="546" type="line"/>
      <point x="349" y="546" type="line"/>
      <point x="349" y="468" type="line"/>
    </contour>
    <contour>
      <point x="-8" y="522" type="line"/>
      <point x="620" y="522" type="line"/>
      <point x="620" y="619" type="line"/>
      <point x="-8" y="619" type="line"/>
    </contour>
    <contour>
      <point x="354" y="90" type="curve"/>
      <point x="399" y="44"/>
      <point x="442" y="8"/>
      <point x="456" y="17" type="curve" smooth="yes"/>
      <point x="514" y="56"/>
      <point x="583" y="127"/>
      <point x="572" y="169" type="curve" smooth="yes"/>
      <point x="566" y="190"/>
      <point x="440" y="319"/>
      <point x="415" y="319" type="curve" smooth="yes"/>
      <point x="390" y="319"/>
      <point x="255" y="232"/>
      <point x="285" y="162" type="curve" smooth="yes"/>
      <point x="297" y="135"/>
      <point x="326" y="101"/>
      <point x="347" y="79" type="curve"/>
      <point x="373" y="95" type="line"/>
      <point x="335" y="197"/>
      <point x="441" y="253"/>
      <point x="467" y="228" type="curve" smooth="yes"/>
      <point x="487" y="208"/>
      <point x="417" y="113"/>
    </contour>
  </outline>
</glyph>
<glyph name="dvDDH_YA" format="1">
  <advance width="1217"/>
  <outline>
    <contour>
      <point x="1049" y="200" type="line"/>
      <point x="1020" y="161"/>
      <point x="947" y="71"/>
      <point x="862" y="71" type="curve" smooth="yes"/>
      <point x="740" y="71"/>
      <point x="540" y="273"/>
      <point x="564" y="284" type="curve" smooth="yes"/>
      <point x="615" y="309"/>
      <point x="739" y="372"/>
      <point x="701" y="386" type="curve" smooth="yes"/>
      <point x="693" y="389"/>
      <point x="531" y="382"/>
      <point x="424" y="382" type="curve"/>
      <point x="399" y="459" type="line"/>
      <point x="588" y="464"/>
      <point x="798" y="480"/>
      <point x="830" y="418" type="curve" smooth="yes"/>
      <point x="857" y="366"/>
      <point x="736" y="262"/>
      <point x="681" y="235" type="curve"/>
      <point x="811" y="100"/>
      <point x="968" y="218"/>
      <point x="1030" y="354" type="curve"/>
    </contour>
    <contour>
      <point x="533" y="619" type="line"/>
      <point x="1223" y="619" type="line"/>
      <point x="1223" y="523" type="line"/>
      <point x="533" y="523" type="line"/>
    </contour>
    <contour>
      <point x="1023" y="538" type="line"/>
      <point x="1147" y="538" type="line"/>
      <point x="1147" y="-55" type="line"/>
      <point x="1023" y="1" type="line"/>
    </contour>
    <component base="dvDDHA"/>
  </outline>
</glyph>
<glyph name="dvDD_DDA" format="1">
  <advance width="631"/>
  <outline>
    <contour>
      <point x="412" y="619" type="move" name="abvm.bindu"/>
    </contour>
    <contour>
      <point x="222" y="-417" type="move" name="blwm.virama"/>
    </contour>
    <contour>
      <point x="402" y="619" type="move" name="abvm.e"/>
    </contour>
    <contour>
      <point x="254" y="-413" type="move" name="blwm.u"/>
    </contour>
    <contour>
      <point x="79" y="248" type="line"/>
      <point x="266" y="7"/>
      <point x="455" y="116"/>
      <point x="488" y="237" type="curve" smooth="yes"/>
      <point x="506" y="303"/>
      <point x="295" y="146"/>
      <point x="239" y="186" type="curve" smooth="yes"/>
      <point x="191" y="220"/>
      <point x="137" y="260"/>
      <point x="99" y="300" type="curve" smooth="yes"/>
      <point x="58" y="345"/>
      <point x="134" y="455"/>
      <point x="188" y="459" type="curve"/>
      <point x="349" y="470" type="line"/>
      <point x="349" y="555" type="line"/>
      <point x="461" y="555" type="line"/>
      <point x="461" y="393" type="line"/>
      <point x="240" y="393" type="line" smooth="yes"/>
      <point x="194" y="393"/>
      <point x="162" y="263"/>
      <point x="248" y="286" type="curve" smooth="yes"/>
      <point x="294" y="298"/>
      <point x="442" y="351"/>
      <point x="456" y="339" type="curve" smooth="yes"/>
      <point x="504" y="299"/>
      <point x="581" y="198"/>
      <point x="570" y="167" type="curve" smooth="yes"/>
      <point x="495" y="-49"/>
      <point x="231" y="-28"/>
      <point x="59" y="229" type="curve"/>
    </contour>
    <contour>
      <point x="-10" y="619" type="line"/>
      <point x="649" y="619" type="line"/>
      <point x="649" y="523" type="line"/>
      <point x="-10" y="523" type="line"/>
    </contour>
    <contour>
      <point x="79" y="-235" type="line"/>
      <point x="266" y="-476"/>
      <point x="455" y="-367"/>
      <point x="488" y="-246" type="curve" smooth="yes"/>
      <point x="506" y="-180"/>
      <point x="295" y="-337"/>
      <point x="239" y="-297" type="curve" smooth="yes"/>
      <point x="191" y="-263"/>
      <point x="137" y="-223"/>
      <point x="99" y="-183" type="curve" smooth="yes"/>
      <point x="58" y="-138"/>
      <point x="134" y="-28"/>
      <point x="188" y="-24" type="curve" smooth="yes"/>
      <point x="349" y="-13" type="line"/>
      <point x="349" y="72" type="line"/>
      <point x="461" y="72" type="line"/>
      <point x="461" y="-90" type="line"/>
      <point x="240" y="-90" type="line" smooth="yes"/>
      <point x="194" y="-90"/>
      <point x="162" y="-220"/>
      <point x="248" y="-197" type="curve" smooth="yes"/>
      <point x="294" y="-185"/>
      <point x="442" y="-132"/>
      <point x="456" y="-144" type="curve" smooth="yes"/>
      <point x="504" y="-184"/>
      <point x="581" y="-285"/>
      <point x="570" y="-316" type="curve" smooth="yes"/>
      <point x="495" y="-532"/>
      <point x="231" y="-511"/>
      <point x="59" y="-254" type="curve"/>
    </contour>
  </outline>
</glyph>
<glyph name="dvDD_VA" format="1">
  <advance width="589"/>
  <outline>
    <contour>
      <point x="474" y="662" type="move" name="abvm.bindu"/>
    </contour>
    <contour>
      <point x="359" y="-332" type="move" name="blwm.virama"/>
    </contour>
    <contour>
      <point x="474" y="672" type="move" name="abvm.e"/>
    </contour>
    <contour>
      <point x="359" y="-322" type="move" name="blwm.u"/>
    </contour>
  </outline>
</glyph>
<glyph name="dvDH" format="1">
  <advance width="487"/>
  <outline>
    <contour>
      <point x="382" y="287" type="line"/>
      <point x="274" y="268"/>
      <point x="141" y="187"/>
      <point x="204" y="127" type="curve" smooth="yes"/>
      <point x="262" y="72"/>
      <point x="446" y="187"/>
      <point x="493" y="305" type="curve"/>
      <point x="561" y="209" type="line"/>
      <point x="482" y="47"/>
      <point x="279" y="-4"/>
      <point x="220" y="50" type="curve" smooth="yes"/>
      <point x="178" y="88"/>
      <point x="130" y="128"/>
      <point x="88" y="178" type="curve" smooth="yes"/>
      <point x="56" y="215"/>
      <point x="109" y="272"/>
      <point x="173" y="314" type="curve"/>
      <point x="135" y="340"/>
      <point x="64" y="398"/>
      <point x="35" y="429" type="curve" smooth="yes"/>
      <point x="-51" y="521"/>
      <point x="177" y="644"/>
      <point x="214" y="625" type="curve" smooth="yes"/>
      <point x="269" y="597"/>
      <point x="306" y="565"/>
      <point x="333" y="532" type="curve" smooth="yes"/>
      <point x="383" y="471"/>
      <point x="266" y="367"/>
      <point x="161" y="376" type="curve"/>
      <point x="173" y="362"/>
      <point x="189" y="348"/>
      <point x="209" y="334" type="curve"/>
      <point x="246" y="354"/>
      <point x="284" y="366"/>
      <point x="308" y="364" type="curve"/>
    </contour>
    <contour>
      <point x="375" y="619" type="line"/>
      <point x="697" y="619" type="line"/>
      <point x="697" y="523" type="line"/>
      <point x="414" y="523" type="line"/>
    </contour>
    <contour>
      <point x="256" y="537" type="curve" smooth="yes"/>
      <point x="226" y="562"/>
      <point x="118" y="520"/>
      <point x="125" y="444" type="curve"/>
      <point x="205" y="444"/>
      <point x="276" y="519"/>
    </contour>
  </outline>
</glyph>
<glyph name="dvDH_N_YA" format="1">
  <advance width="1090"/>
  <outline>
    <contour>
      <point x="408" y="60" type="line"/>
      <point x="276" y="4" type="line"/>
      <point x="374" y="-57"/>
      <point x="280" y="-200"/>
      <point x="230" y="-188" type="curve"/>
      <point x="174" y="-169"/>
      <point x="142" y="-159"/>
      <point x="97" y="-138" type="curve" smooth="yes"/>
      <point x="28" y="-105"/>
      <point x="42" y="-16"/>
      <point x="91" y="25" type="curve" smooth="yes"/>
      <point x="92" y="26"/>
      <point x="88" y="25"/>
      <point x="83" y="24" type="curve"/>
      <point x="108" y="34"/>
      <point x="182" y="65"/>
      <point x="371" y="148" type="curve"/>
    </contour>
    <component base="dvYA" xOffset="427"/>
    <component base="dvDH"/>
  </outline>
</glyph>
<glyph name="dvD_DHA" format="1">
  <advance width="729"/>
  <outline>
    <contour>
      <point x="649" y="662" type="move" name="abvm.bindu"/>
    </contour>
    <contour>
      <point x="433" y="-407" type="move" name="blwm.virama"/>
    </contour>
    <contour>
      <point x="649" y="672" type="move" name="abvm.e"/>
    </contour>
    <contour>
      <point x="433" y="-397" type="move" name="blwm.u"/>
    </contour>
  </outline>
</glyph>
<glyph name="dvD_GA" format="1">
  <advance width="608"/>
  <outline>
    <contour>
      <point x="420" y="619" type="move" name="abvm.bindu"/>
    </contour>
    <contour>
      <point x="387" y="-220" type="move" name="blwm.virama"/>
    </contour>
    <contour>
      <point x="408" y="619" type="move" name="abvm.e"/>
    </contour>
    <contour>
      <point x="473" y="-126" type="move" name="blwm.u"/>
    </contour>
    <contour>
      <point x="-10" y="619" type="line"/>
      <point x="649" y="619" type="line"/>
      <point x="649" y="523" type="line"/>
      <point x="-10" y="523" type="line"/>
    </contour>
    <contour>
      <point x="349" y="468" type="line"/>
      <point x="349" y="546" type="line"/>
      <point x="460" y="546" type="line"/>
      <point x="460" y="391" type="line"/>
      <point x="293" y="389" type="line"/>
      <point x="188" y="388"/>
      <point x="116" y="136"/>
      <point x="298" y="123" type="curve" smooth="yes"/>
      <point x="400" y="116"/>
      <point x="451" y="199"/>
      <point x="469" y="261" type="curve"/>
      <point x="554" y="186" type="line"/>
      <point x="465" y="65"/>
      <point x="368" y="-27"/>
      <point x="241" y="77" type="curve" smooth="yes"/>
      <point x="177" y="129"/>
      <point x="138" y="162"/>
      <point x="96" y="224" type="curve" smooth="yes"/>
      <point x="46" y="298"/>
      <point x="112" y="447"/>
      <point x="189" y="455" type="curve"/>
    </contour>
    <contour>
      <point x="527" y="-118" type="line"/>
      <point x="386" y="170"/>
      <point x="338" y="214"/>
      <point x="345" y="228" type="curve" smooth="yes"/>
      <point x="360" y="258"/>
      <point x="397" y="286"/>
      <point x="415" y="297" type="curve" smooth="yes"/>
      <point x="462" y="327"/>
      <point x="497" y="299"/>
      <point x="529" y="261" type="curve" smooth="yes"/>
      <point x="556" y="229"/>
      <point x="574" y="182"/>
      <point x="543" y="153" type="curve" smooth="yes"/>
      <point x="475" y="91" type="line"/>
      <point x="591" y="-87" type="line"/>
    </contour>
    <contour>
      <point x="285" y="121" type="line"/>
      <point x="403" y="-77"/>
      <point x="316" y="-168"/>
      <point x="269" y="-168" type="curve" smooth="yes"/>
      <point x="227" y="-168"/>
      <point x="144" y="-50"/>
      <point x="204" y="-29" type="curve" smooth="yes"/>
      <point x="220" y="-24"/>
      <point x="261" y="-38"/>
      <point x="267" y="-47" type="curve"/>
      <point x="276" y="5"/>
      <point x="271" y="50"/>
      <point x="236" y="122" type="curve"/>
    </contour>
  </outline>
</glyph>
<glyph name="dvD_MA" format="1">
  <advance width="707"/>
  <outline>
    <contour>
      <point x="404" y="56" type="line"/>
      <point x="404" y="18" type="line" smooth="yes"/>
      <point x="404" y="-87"/>
      <point x="281" y="-78"/>
      <point x="255" y="-56" type="curve" smooth="yes"/>
      <point x="234" y="-39"/>
      <point x="214" y="-20"/>
      <point x="187" y="10" type="curve" smooth="yes"/>
      <point x="140" y="62"/>
      <point x="179" y="152"/>
      <point x="240" y="152" type="curve" smooth="yes"/>
      <point x="300" y="152" type="line"/>
      <point x="300" y="152"/>
      <point x="302" y="153"/>
      <point x="300" y="190" type="curve" smooth="yes"/>
      <point x="298" y="220"/>
      <point x="209" y="187"/>
      <point x="168" y="190" type="curve" smooth="yes"/>
      <point x="152" y="191"/>
      <point x="48" y="316"/>
      <point x="39" y="336" type="curve" smooth="yes"/>
      <point x="14" y="391"/>
      <point x="56" y="462"/>
      <point x="110" y="466" type="curve" smooth="yes"/>
      <point x="253" y="477" type="line"/>
      <point x="253" y="523" type="line"/>
      <point x="-29" y="523" type="line"/>
      <point x="-29" y="619" type="line"/>
      <point x="714" y="619" type="line"/>
      <point x="714" y="523" type="line"/>
      <point x="649" y="523" type="line"/>
      <point x="649" y="-56" type="line"/>
      <point x="525" y="0" type="line"/>
      <point x="525" y="56" type="line"/>
    </contour>
    <contour>
      <point x="184" y="389" type="line"/>
      <point x="138" y="389"/>
      <point x="84" y="292"/>
      <point x="198" y="286" type="curve" smooth="yes"/>
      <point x="351" y="278"/>
      <point x="408" y="321"/>
      <point x="404" y="152" type="curve"/>
      <point x="525" y="152" type="line"/>
      <point x="525" y="523" type="line"/>
      <point x="365" y="523" type="line"/>
      <point x="365" y="389" type="line"/>
    </contour>
    <contour>
      <point x="299" y="57" type="curve"/>
      <point x="231" y="59"/>
      <point x="227" y="26"/>
      <point x="242" y="7" type="curve" smooth="yes"/>
      <point x="259" y="-14"/>
      <point x="298" y="-19"/>
    </contour>
  </outline>
</glyph>
<glyph name="dvD_NA" format="1">
  <advance width="571"/>
  <outline>
    <contour>
      <point x="450" y="662" type="move" name="abvm.bindu"/>
    </contour>
    <contour>
      <point x="375" y="-204" type="move" name="blwm.virama"/>
    </contour>
    <contour>
      <point x="450" y="672" type="move" name="abvm.e"/>
    </contour>
    <contour>
      <point x="394" y="-194" type="move" name="blwm.u"/>
    </contour>
  </outline>
</glyph>
<glyph name="dvEight" format="1">
  <advance width="516"/>
  <outline>
    <contour>
      <point x="483" y="111" type="line"/>
      <point x="383" y="18"/>
      <point x="253" y="-37"/>
      <point x="187" y="29" type="curve" smooth="yes"/>
      <point x="128" y="88"/>
      <point x="91" y="134"/>
      <point x="41" y="199" type="curve" smooth="yes"/>
      <point x="0" y="253"/>
      <point x="214" y="558"/>
      <point x="282" y="623" type="curve"/>
      <point x="397" y="538" type="line"/>
      <point x="318" y="471"/>
      <point x="119" y="197"/>
      <point x="177" y="122" type="curve" smooth="yes"/>
      <point x="213" y="76"/>
      <point x="315" y="130"/>
      <point x="390" y="223" type="curve"/>
    </contour>
  </outline>
</glyph>
<glyph name="dvFive" format="1">
  <advance width="550"/>
  <outline>
    <contour>
      <point x="539" y="5" type="line"/>
      <point x="429" y="142" type="line"/>
      <point x="359" y="77"/>
      <point x="281" y="24"/>
      <point x="196" y="85" type="curve" smooth="yes"/>
      <point x="130" y="132"/>
      <point x="106" y="153"/>
      <point x="55" y="208" type="curve"/>
      <point x="-20" y="286"/>
      <point x="79" y="492"/>
      <point x="249" y="628" type="curve"/>
      <point x="350" y="554" type="line"/>
      <point x="85" y="345"/>
      <point x="116" y="21"/>
      <point x="352" y="241" type="curve"/>
      <point x="319" y="285"/>
      <point x="314" y="296"/>
      <point x="318" y="303" type="curve" smooth="yes"/>
      <point x="333" y="333"/>
      <point x="370" y="361"/>
      <point x="388" y="372" type="curve" smooth="yes"/>
      <point x="435" y="402"/>
      <point x="470" y="374"/>
      <point x="502" y="336" type="curve" smooth="yes"/>
      <point x="529" y="304"/>
      <point x="546" y="258"/>
      <point x="516" y="228" type="curve" smooth="yes"/>
      <point x="463" y="175" type="line"/>
      <point x="578" y="32" type="line"/>
    </contour>
  </outline>
</glyph>
<glyph name="dvG_NA" format="1">
  <advance width="694"/>
  <outline>
    <contour>
      <point x="491" y="537" type="line"/>
      <point x="615" y="537" type="line"/>
      <point x="615" y="-56" type="line"/>
      <point x="491" y="0" type="line"/>
    </contour>
    <contour>
      <point x="-5" y="619" type="line"/>
      <point x="697" y="619" type="line"/>
      <point x="697" y="523" type="line"/>
      <point x="-5" y="523" type="line"/>
    </contour>
    <contour>
      <point x="205" y="526" type="line"/>
      <point x="388" y="330"/>
      <point x="315" y="70"/>
      <point x="141" y="70" type="curve" smooth="yes"/>
      <point x="116" y="70"/>
      <point x="53" y="145"/>
      <point x="44" y="165" type="curve" smooth="yes"/>
      <point x="32" y="193"/>
      <point x="48" y="285"/>
      <point x="84" y="298" type="curve" smooth="yes"/>
      <point x="88" y="299"/>
      <point x="137" y="268"/>
      <point x="145" y="261" type="curve" smooth="yes"/>
      <point x="157" y="250"/>
      <point x="158" y="237"/>
      <point x="164" y="212" type="curve"/>
      <point x="224" y="298"/>
      <point x="215" y="448"/>
      <point x="153" y="526" type="curve"/>
    </contour>
    <contour>
      <point x="600" y="139" type="line"/>
      <point x="374" y="37" type="line" smooth="yes"/>
      <point x="161" y="-62"/>
      <point x="427" y="-138"/>
      <point x="372" y="46" type="curve"/>
      <point x="407" y="68" type="line"/>
      <point x="535" y="18"/>
      <point x="438" y="-144"/>
      <point x="385" y="-132" type="curve"/>
      <point x="328" y="-116"/>
      <point x="296" y="-106"/>
      <point x="249" y="-87" type="curve"/>
      <point x="180" y="-55"/>
      <point x="191" y="32"/>
      <point x="240" y="76" type="curve"/>
      <point x="247" y="85"/>
      <point x="147" y="30"/>
      <point x="559" y="226" type="curve"/>
    </contour>
  </outline>
</glyph>
<glyph name="dvK" format="1">
  <advance width="678"/>
  <outline>
    <contour>
      <point x="405" y="367" type="line"/>
      <point x="369" y="390"/>
      <point x="302" y="435"/>
      <point x="268" y="459" type="curve" smooth="yes"/>
      <point x="209" y="499"/>
      <point x="-10" y="347"/>
      <point x="35" y="262" type="curve" smooth="yes"/>
      <point x="72" y="190"/>
      <point x="147" y="70"/>
      <point x="253" y="70" type="curve"/>
      <point x="355" y="71"/>
      <point x="423" y="213"/>
      <point x="423" y="213" type="curve"/>
      <point x="398" y="305" type="line"/>
      <point x="285" y="119"/>
      <point x="159" y="170"/>
      <point x="132" y="200" type="curve" smooth="yes"/>
      <point x="78" y="257"/>
      <point x="252" y="444"/>
      <point x="402" y="313" type="curve"/>
    </contour>
    <contour>
      <point x="-27" y="522" type="line"/>
      <point x="843" y="522" type="line"/>
      <point x="843" y="619" type="line"/>
      <point x="-27" y="619" type="line"/>
    </contour>
    <contour>
      <point x="375" y="0" type="line"/>
      <point x="500" y="-56" type="line"/>
      <point x="500" y="537" type="line"/>
      <point x="375" y="537" type="line"/>
    </contour>
    <contour>
      <point x="499" y="245" type="line"/>
      <point x="538" y="327"/>
      <point x="690" y="405"/>
      <point x="761" y="248" type="curve"/>
      <point x="823" y="290" type="line"/>
      <point x="782" y="375"/>
      <point x="682" y="464"/>
      <point x="641" y="466" type="curve" smooth="yes"/>
      <point x="579" y="468"/>
      <point x="526" y="415"/>
      <point x="493" y="385" type="curve"/>
    </contour>
  </outline>
</glyph>
<glyph name="dvK_DA_mU" format="1">
  <advance width="1273"/>
  <outline>
    <contour>
      <point x="1083" y="618" type="move" name="abvm.bindu"/>
    </contour>
    <contour>
      <point x="1069" y="619" type="move" name="abvm.e"/>
    </contour>
    <component base="dvmU" xOffset="1164"/>
    <component base="dvDA" xOffset="670"/>
    <component base="dvK"/>
  </outline>
</glyph>
<glyph name="dvK_S_P_LA" format="1">
  <advance width="2202"/>
  <outline>
    <contour>
      <point x="1577" y="325" type="curve"/>
      <point x="1577" y="325"/>
      <point x="1659" y="237"/>
      <point x="1660" y="237" type="curve" smooth="yes"/>
      <point x="1660" y="237"/>
      <point x="1544" y="71"/>
      <point x="1442" y="71" type="curve" smooth="yes"/>
      <point x="1366" y="71"/>
      <point x="1275" y="180"/>
      <point x="1211" y="248" type="curve" smooth="yes"/>
      <point x="1203" y="256"/>
      <point x="1205" y="467"/>
      <point x="1205" y="523" type="curve"/>
      <point x="1142" y="523" type="line"/>
      <point x="1142" y="619" type="line"/>
      <point x="1761" y="619" type="line"/>
      <point x="1761" y="523" type="line"/>
      <point x="1328" y="523" type="line"/>
      <point x="1330" y="208" type="line"/>
      <point x="1392" y="142"/>
      <point x="1536" y="230"/>
    </contour>
    <component base="dvLA" xOffset="1499"/>
    <component base="dvS" xOffset="687"/>
    <component base="dvK" xOffset="14"/>
  </outline>
</glyph>
<glyph name="dvKx_PHxA" format="1">
  <advance width="1573"/>
  <outline>
    <contour>
      <point x="1200" y="619" type="move" name="abvm.bindu"/>
    </contour>
    <contour>
      <point x="1210" y="-29" type="move" name="blwm.virama"/>
    </contour>
    <contour>
      <point x="1188" y="619" type="move" name="abvm.e"/>
    </contour>
    <contour>
      <point x="1182" y="-29" type="move" name="blwm.u"/>
    </contour>
    <component base="dvPHA" xOffset="704"/>
    <component base="dvNukta" xOffset="563" yOffset="75"/>
    <component base="dvNukta" xOffset="1284" yOffset="75"/>
    <component base="dvK" xOffset="14"/>
  </outline>
</glyph>
<glyph name="dvLA" format="1">
  <advance width="724"/>
  <outline>
    <contour>
      <point x="566" y="328" type="line"/>
      <point x="506" y="312"/>
      <point x="403" y="213"/>
      <point x="357" y="132" type="curve"/>
      <point x="274" y="200" type="line"/>
      <point x="285" y="264"/>
      <point x="428" y="392"/>
      <point x="528" y="406" type="curve"/>
    </contour>
    <contour>
      <point x="526" y="538" type="line"/>
      <point x="650" y="538" type="line"/>
      <point x="650" y="-55" type="line"/>
      <point x="526" y="1" type="line"/>
    </contour>
    <contour>
      <point x="-9" y="619" type="line"/>
      <point x="728" y="619" type="line"/>
      <point x="728" y="523" type="line"/>
      <point x="-9" y="523" type="line"/>
    </contour>
    <contour>
      <point x="322" y="266" type="line"/>
      <point x="250" y="316"/>
      <point x="194" y="319"/>
      <point x="159" y="285" type="curve" smooth="yes"/>
      <point x="99" y="226"/>
      <point x="175" y="65"/>
      <point x="285" y="-23" type="curve"/>
      <point x="258" y="-57" type="line"/>
      <point x="159" y="30"/>
      <point x="24" y="190"/>
      <point x="16" y="253" type="curve" smooth="yes"/>
      <point x="8" y="319"/>
      <point x="154" y="432"/>
      <point x="209" y="414" type="curve" smooth="yes"/>
      <point x="249" y="401"/>
      <point x="314" y="336"/>
      <point x="350" y="298" type="curve"/>
    </contour>
  </outline>
</glyph>
<glyph name="dvL_DA_mU" format="1">
  <advance width="1057"/>
  <outline>
    <contour>
      <point x="834" y="618" type="move" name="abvm.bindu"/>
    </contour>
    <contour>
      <point x="820" y="619" type="move" name="abvm.e"/>
    </contour>
    <component base="dvL" xOffset="-4"/>
    <component base="dvDA_mU" xOffset="427"/>
  </outline>
</glyph>
<glyph name="dvL_KHA" format="1">
  <advance width="1279"/>
  <outline>
    <contour>
      <point x="-10" y="619" type="line"/>
      <point x="526" y="619" type="line"/>
      <point x="526" y="523" type="line"/>
      <point x="-10" y="523" type="line"/>
    </contour>
    <contour>
      <point x="566" y="308" type="line"/>
      <point x="506" y="292"/>
      <point x="403" y="213"/>
      <point x="357" y="132" type="curve"/>
      <point x="274" y="200" type="line"/>
      <point x="285" y="264"/>
      <point x="428" y="372"/>
      <point x="528" y="386" type="curve"/>
    </contour>
    <contour>
      <point x="322" y="266" type="line"/>
      <point x="250" y="316"/>
      <point x="194" y="319"/>
      <point x="159" y="285" type="curve" smooth="yes"/>
      <point x="99" y="226"/>
      <point x="175" y="65"/>
      <point x="285" y="-23" type="curve"/>
      <point x="258" y="-57" type="line"/>
      <point x="159" y="30"/>
      <point x="24" y="190"/>
      <point x="16" y="253" type="curve" smooth="yes"/>
      <point x="8" y="319"/>
      <point x="154" y="432"/>
      <point x="209" y="414" type="curve" smooth="yes"/>
      <point x="249" y="401"/>
      <point x="314" y="336"/>
      <point x="350" y="298" type="curve"/>
    </contour>
    <component base="dvKHA" xOffset="433"/>
  </outline>
</glyph>
<glyph name="dvM_BH_VA" format="1">
  <advance width="1363"/>
  <outline>
    <contour>
      <point x="298" y="172" type="line"/>
      <point x="298" y="134" type="line" smooth="yes"/>
      <point x="298" y="29"/>
      <point x="171" y="21"/>
      <point x="145" y="43" type="curve" smooth="yes"/>
      <point x="124" y="60"/>
      <point x="81" y="97"/>
      <point x="50" y="122" type="curve" smooth="yes"/>
      <point x="-4" y="166"/>
      <point x="53" y="268"/>
      <point x="114" y="268" type="curve" smooth="yes"/>
      <point x="174" y="268" type="line"/>
      <point x="174" y="523" type="line"/>
      <point x="-6" y="523" type="line"/>
      <point x="-6" y="619" type="line"/>
      <point x="459" y="619" type="line"/>
      <point x="459" y="523" type="line"/>
      <point x="298" y="523" type="line"/>
      <point x="298" y="267" type="line"/>
      <point x="505" y="268" type="line"/>
      <point x="505" y="172" type="line"/>
    </contour>
    <contour>
      <point x="683" y="619" type="line"/>
      <point x="1010" y="619" type="line"/>
      <point x="1010" y="523" type="line"/>
      <point x="722" y="523" type="line"/>
    </contour>
    <contour>
      <point x="173" y="173" type="curve"/>
      <point x="87" y="177"/>
      <point x="89" y="135"/>
      <point x="112" y="115" type="curve" smooth="yes"/>
      <point x="133" y="96"/>
      <point x="173" y="95"/>
    </contour>
    <component base="dvBH" xOffset="346"/>
    <component base="dvVA" xOffset="774"/>
  </outline>
</glyph>
<glyph name="dvM_B_YA" format="1">
  <advance width="1415"/>
  <outline>
    <contour>
      <point x="838" y="314" type="line"/>
      <point x="688" y="445"/>
      <point x="514" y="258"/>
      <point x="568" y="201" type="curve" smooth="yes"/>
      <point x="595" y="171"/>
      <point x="721" y="120"/>
      <point x="834" y="306" type="curve"/>
      <point x="859" y="214" type="line"/>
      <point x="859" y="214"/>
      <point x="791" y="72"/>
      <point x="689" y="71" type="curve"/>
      <point x="583" y="71"/>
      <point x="508" y="191"/>
      <point x="471" y="263" type="curve" smooth="yes"/>
      <point x="426" y="348"/>
      <point x="641" y="493"/>
      <point x="704" y="460" type="curve" smooth="yes"/>
      <point x="738" y="442"/>
      <point x="828" y="385"/>
      <point x="864" y="356" type="curve"/>
    </contour>
    <contour>
      <point x="584" y="340" type="line"/>
      <point x="608" y="368" type="line"/>
      <point x="806" y="176" type="line"/>
      <point x="782" y="149" type="line"/>
    </contour>
    <contour>
      <point x="409" y="619" type="line"/>
      <point x="1011" y="619" type="line"/>
      <point x="1011" y="523" type="line"/>
      <point x="409" y="523" type="line"/>
    </contour>
    <component base="dvYA" xOffset="740"/>
    <component base="dvM" xOffset="5"/>
  </outline>
</glyph>
<glyph name="dvM_DA" format="1">
  <advance width="1009"/>
  <outline>
    <contour>
      <point x="852" y="662" type="move" name="abvm.bindu"/>
    </contour>
    <contour>
      <point x="707" y="-173" type="move" name="blwm.virama"/>
    </contour>
    <contour>
      <point x="846" y="619" type="move" name="abvm.e"/>
    </contour>
    <contour>
      <point x="874" y="-110" type="move" name="blwm.u"/>
    </contour>
    <component base="dvM"/>
    <component base="dvDA" xOffset="420"/>
  </outline>
</glyph>
<glyph name="dvM_SHA" format="1">
  <advance width="1114"/>
  <outline>
    <contour>
      <point x="845" y="-79" type="line"/>
      <point x="781" y="-20"/>
      <point x="723" y="31"/>
      <point x="651" y="90" type="curve"/>
      <point x="597" y="86"/>
      <point x="514" y="74"/>
      <point x="486" y="101" type="curve" smooth="yes"/>
      <point x="480" y="107"/>
      <point x="419" y="161"/>
      <point x="419" y="204" type="curve" smooth="yes"/>
      <point x="419" y="218"/>
      <point x="455" y="259"/>
      <point x="491" y="269" type="curve"/>
      <point x="537" y="246"/>
      <point x="792" y="22"/>
      <point x="884" y="-38" type="curve"/>
    </contour>
    <contour>
      <point x="927" y="538" type="line"/>
      <point x="1051" y="538" type="line"/>
      <point x="1051" y="-55" type="line"/>
      <point x="927" y="1" type="line"/>
    </contour>
    <contour>
      <point x="795" y="619" type="line"/>
      <point x="1124" y="619" type="line"/>
      <point x="1124" y="523" type="line"/>
      <point x="834" y="523" type="line"/>
    </contour>
    <contour>
      <point x="729" y="309" type="curve"/>
      <point x="750" y="353"/>
      <point x="753" y="413"/>
      <point x="753" y="439" type="curve" smooth="yes"/>
      <point x="753" y="650"/>
      <point x="509" y="494"/>
      <point x="591" y="406" type="curve" smooth="yes"/>
      <point x="627" y="368"/>
      <point x="697" y="319"/>
    </contour>
    <contour>
      <point x="556" y="159" type="line"/>
      <point x="640" y="186"/>
      <point x="686" y="225"/>
      <point x="717" y="275" type="curve"/>
      <point x="642" y="298"/>
      <point x="470" y="434"/>
      <point x="470" y="493" type="curve" smooth="yes"/>
      <point x="470" y="577"/>
      <point x="613" y="655"/>
      <point x="671" y="620" type="curve" smooth="yes"/>
      <point x="740" y="578"/>
      <point x="824" y="488"/>
      <point x="836" y="454" type="curve" smooth="yes"/>
      <point x="883" y="323"/>
      <point x="802" y="125"/>
      <point x="652" y="90" type="curve"/>
    </contour>
    <contour>
      <point x="-12" y="619" type="line"/>
      <point x="608" y="619" type="line"/>
      <point x="608" y="523" type="line"/>
      <point x="-12" y="523" type="line"/>
    </contour>
    <contour>
      <point x="167" y="176" type="curve"/>
      <point x="101" y="184"/>
      <point x="85" y="138"/>
      <point x="105" y="115" type="curve" smooth="yes"/>
      <point x="121" y="97"/>
      <point x="168" y="99"/>
    </contour>
    <contour>
      <point x="292" y="172" type="line"/>
      <point x="292" y="-9"/>
      <point x="164" y="7"/>
      <point x="136" y="26" type="curve" smooth="yes"/>
      <point x="114" y="41"/>
      <point x="63" y="80"/>
      <point x="30" y="119" type="curve" smooth="yes"/>
      <point x="-1" y="156"/>
      <point x="10" y="280"/>
      <point x="168" y="273" type="curve"/>
      <point x="168" y="530" type="line"/>
      <point x="292" y="571" type="line"/>
      <point x="292" y="270" type="line"/>
      <point x="491" y="269" type="line"/>
      <point x="492" y="172" type="line"/>
    </contour>
  </outline>
</glyph>
<glyph name="dvNY" format="1">
  <advance width="552"/>
  <outline>
    <contour>
      <point x="263" y="417" type="curve" smooth="yes"/>
      <point x="231" y="419"/>
      <point x="157" y="381"/>
      <point x="100" y="347" type="curve"/>
      <point x="180" y="273" type="line"/>
      <point x="265" y="318" type="line" smooth="yes"/>
      <point x="335" y="355"/>
      <point x="389" y="288"/>
      <point x="367" y="231" type="curve" smooth="yes"/>
      <point x="326" y="122"/>
      <point x="154" y="126"/>
      <point x="11" y="301" type="curve"/>
      <point x="-22" y="275" type="line"/>
      <point x="72" y="161"/>
      <point x="172" y="56"/>
      <point x="311" y="74" type="curve" smooth="yes"/>
      <point x="434" y="90"/>
      <point x="506" y="174"/>
      <point x="437" y="279" type="curve"/>
      <point x="389" y="325"/>
      <point x="318" y="414"/>
    </contour>
    <contour>
      <point x="-6" y="522" type="line"/>
      <point x="643" y="522" type="line"/>
      <point x="643" y="619" type="line"/>
      <point x="-6" y="619" type="line"/>
    </contour>
    <contour>
      <point x="403" y="308" type="line"/>
      <point x="492" y="218"/>
      <point x="541" y="201"/>
      <point x="631" y="283" type="curve"/>
      <point x="630" y="284"/>
      <point x="577" y="371"/>
      <point x="576" y="370" type="curve" smooth="yes"/>
      <point x="553" y="315"/>
      <point x="490" y="304"/>
      <point x="389" y="325" type="curve"/>
    </contour>
  </outline>
</glyph>
<glyph name="dvN_DDA" format="1">
  <advance width="992"/>
  <outline>
    <contour>
      <point x="795" y="619" type="move" name="abvm.bindu"/>
    </contour>
    <contour>
      <point x="595" y="0" type="move" name="blwm.virama"/>
    </contour>
    <contour>
      <point x="779" y="619" type="move" name="abvm.e"/>
    </contour>
    <contour>
      <point x="627" y="-10" type="move" name="blwm.u"/>
    </contour>
    <component base="dvDDA" xOffset="371"/>
    <component base="dvN" xOffset="-11"/>
  </outline>
</glyph>
<glyph name="dvN_PHA" format="1">
  <advance width="1302"/>
  <outline>
    <contour>
      <point x="902" y="619" type="move" name="abvm.bindu"/>
    </contour>
    <contour>
      <point x="890" y="-16" type="move" name="blwm.virama"/>
    </contour>
    <contour>
      <point x="912" y="619" type="move" name="abvm.e"/>
    </contour>
    <contour>
      <point x="910" y="-29" type="move" name="blwm.u"/>
    </contour>
    <component base="dvPHA" xOffset="430"/>
    <component base="dvN" xOffset="-4"/>
  </outline>
</glyph>
<glyph name="dvN_PH_RA" format="1">
  <advance width="1292"/>
  <outline>
    <contour>
      <point x="855" y="662" type="move" name="abvm.bindu"/>
    </contour>
    <contour>
      <point x="799" y="0" type="move" name="blwm.virama"/>
    </contour>
    <contour>
      <point x="855" y="672" type="move" name="abvm.e"/>
    </contour>
    <contour>
      <point x="800" y="-10" type="move" name="blwm.u"/>
    </contour>
    <contour>
      <point x="899" y="118" type="line"/>
      <point x="878" y="62"/>
      <point x="772" y="-10"/>
      <point x="679" y="-64" type="curve"/>
      <point x="595" y="2" type="line"/>
      <point x="698" y="44"/>
      <point x="809" y="91"/>
      <point x="871" y="164" type="curve"/>
    </contour>
    <component base="dvPHA" xOffset="426"/>
    <component base="dvN" xOffset="6"/>
  </outline>
</glyph>
<glyph name="dvN_S_TTA" format="1">
  <advance width="1567"/>
  <outline>
    <contour>
      <point x="1390" y="616" type="move" name="abvm.bindu"/>
    </contour>
    <contour>
      <point x="1317" y="-29" type="move" name="blwm.virama"/>
    </contour>
    <contour>
      <point x="1372" y="616" type="move" name="abvm.e"/>
    </contour>
    <contour>
      <point x="1338" y="-10" type="move" name="blwm.u"/>
    </contour>
    <contour>
      <point x="581" y="288" type="line"/>
      <point x="259" y="292" type="line" smooth="yes"/>
      <point x="-5" y="295"/>
      <point x="283" y="25"/>
      <point x="277" y="296" type="curve"/>
      <point x="329" y="298" type="line"/>
      <point x="441" y="152"/>
      <point x="266" y="53"/>
      <point x="220" y="91" type="curve" smooth="yes"/>
      <point x="172" y="132"/>
      <point x="136" y="160"/>
      <point x="94" y="199" type="curve" smooth="yes"/>
      <point x="34" y="255"/>
      <point x="52" y="364"/>
      <point x="119" y="385" type="curve" smooth="yes"/>
      <point x="133" y="389"/>
      <point x="94" y="386"/>
      <point x="581" y="385" type="curve"/>
    </contour>
    <contour>
      <point x="-16" y="619" type="line"/>
      <point x="671" y="619" type="line"/>
      <point x="671" y="523" type="line"/>
      <point x="-16" y="523" type="line"/>
    </contour>
    <component base="dvTTA" xOffset="968"/>
    <component base="dvS" xOffset="485"/>
  </outline>
</glyph>
<glyph name="dvNine" format="1">
  <advance width="484"/>
  <outline>
    <contour>
      <point x="437" y="-109" type="line"/>
      <point x="486" y="-63"/>
      <point x="507" y="-23"/>
      <point x="419" y="81" type="curve" smooth="yes"/>
      <point x="397" y="107"/>
      <point x="341" y="171"/>
      <point x="201" y="335" type="curve" smooth="yes"/>
      <point x="48" y="514"/>
      <point x="251" y="548"/>
      <point x="285" y="514" type="curve" smooth="yes"/>
      <point x="341" y="458"/>
      <point x="327" y="343"/>
      <point x="200" y="315" type="curve"/>
      <point x="228" y="292" type="line"/>
      <point x="335" y="276"/>
      <point x="509" y="370"/>
      <point x="362" y="498" type="curve" smooth="yes"/>
      <point x="300" y="552"/>
      <point x="279" y="575"/>
      <point x="214" y="625" type="curve" smooth="yes"/>
      <point x="181" y="650"/>
      <point x="-11" y="520"/>
      <point x="42" y="433" type="curve" smooth="yes"/>
      <point x="104" y="332"/>
      <point x="231" y="218"/>
      <point x="330" y="99" type="curve" smooth="yes"/>
      <point x="388" y="30"/>
      <point x="375" y="-21"/>
      <point x="342" y="-37" type="curve"/>
    </contour>
  </outline>
</glyph>
<glyph name="dvPA" format="1">
  <advance width="607"/>
  <outline>
    <contour>
      <point x="415" y="538" type="line"/>
      <point x="539" y="538" type="line"/>
      <point x="539" y="-55" type="line"/>
      <point x="415" y="1" type="line"/>
    </contour>
    <contour>
      <point x="-3" y="619" type="line"/>
      <point x="616" y="619" type="line"/>
      <point x="616" y="523" type="line"/>
      <point x="-3" y="523" type="line"/>
    </contour>
    <contour>
      <point x="430" y="325" type="curve"/>
      <point x="430" y="325"/>
      <point x="517" y="235"/>
      <point x="518" y="235" type="curve"/>
      <point x="518" y="235"/>
      <point x="399" y="71"/>
      <point x="297" y="71" type="curve" smooth="yes"/>
      <point x="221" y="71"/>
      <point x="130" y="180"/>
      <point x="66" y="248" type="curve" smooth="yes"/>
      <point x="57" y="258"/>
      <point x="61" y="540"/>
      <point x="61" y="540" type="curve" smooth="yes"/>
      <point x="60" y="540"/>
      <point x="183" y="540"/>
      <point x="183" y="540" type="curve"/>
      <point x="185" y="208" type="line"/>
      <point x="247" y="142"/>
      <point x="397" y="223"/>
    </contour>
  </outline>
</glyph>
<glyph name="dvPHA" format="1">
  <advance width="882"/>
  <outline>
    <contour>
      <point x="430" y="662" type="move" name="abvm.bindu"/>
    </contour>
    <contour>
      <point x="372" y="0" type="move" name="blwm.virama"/>
    </contour>
    <contour>
      <point x="537" y="621" type="move" name="abvm.e"/>
    </contour>
    <contour>
      <point x="370" y="-10" type="move" name="blwm.u"/>
    </contour>
    <contour>
      <point x="430" y="325" type="curve"/>
      <point x="397" y="223"/>
      <point x="247" y="142"/>
      <point x="185" y="208" type="curve"/>
      <point x="183" y="540" type="line"/>
      <point x="183" y="540"/>
      <point x="60" y="540"/>
      <point x="61" y="540" type="curve" smooth="yes"/>
      <point x="61" y="540"/>
      <point x="57" y="258"/>
      <point x="66" y="248" type="curve" smooth="yes"/>
      <point x="130" y="180"/>
      <point x="221" y="71"/>
      <point x="297" y="71" type="curve" smooth="yes"/>
      <point x="399" y="71"/>
      <point x="507" y="247"/>
      <point x="507" y="247" type="curve"/>
      <point x="506" y="247"/>
      <point x="430" y="325"/>
    </contour>
    <contour>
      <point x="-3" y="522" type="line"/>
      <point x="886" y="522" type="line"/>
      <point x="886" y="619" type="line"/>
      <point x="-3" y="619" type="line"/>
    </contour>
    <contour>
      <point x="415" y="1" type="line"/>
      <point x="539" y="-55" type="line"/>
      <point x="539" y="538" type="line"/>
      <point x="415" y="538" type="line"/>
    </contour>
    <contour>
      <point x="499" y="205" type="line"/>
      <point x="541" y="255"/>
      <point x="575" y="292"/>
      <point x="623" y="308" type="curve" smooth="yes"/>
      <point x="825" y="372"/>
      <point x="730" y="122"/>
      <point x="624" y="68" type="curve"/>
      <point x="722" y="-5" type="line"/>
      <point x="797" y="42"/>
      <point x="880" y="188"/>
      <point x="833" y="260" type="curve" smooth="yes"/>
      <point x="800" y="309"/>
      <point x="682" y="424"/>
      <point x="641" y="426" type="curve" smooth="yes"/>
      <point x="579" y="428"/>
      <point x="526" y="375"/>
      <point x="493" y="345" type="curve"/>
    </contour>
  </outline>
</glyph>
<glyph name="dvPH_JA" format="1">
  <advance width="1438"/>
  <outline>
    <contour>
      <point x="404" y="538" type="line"/>
      <point x="528" y="538" type="line"/>
      <point x="528" y="-55" type="line"/>
      <point x="404" y="1" type="line"/>
    </contour>
    <contour>
      <point x="-14" y="619" type="line"/>
      <point x="875" y="619" type="line"/>
      <point x="875" y="522" type="line"/>
      <point x="-14" y="522" type="line"/>
    </contour>
    <contour>
      <point x="419" y="325" type="curve"/>
      <point x="419" y="325"/>
      <point x="495" y="247"/>
      <point x="496" y="247" type="curve"/>
      <point x="496" y="247"/>
      <point x="388" y="71"/>
      <point x="286" y="71" type="curve" smooth="yes"/>
      <point x="210" y="71"/>
      <point x="119" y="180"/>
      <point x="55" y="248" type="curve" smooth="yes"/>
      <point x="46" y="258"/>
      <point x="50" y="540"/>
      <point x="50" y="540" type="curve" smooth="yes"/>
      <point x="49" y="540"/>
      <point x="172" y="540"/>
      <point x="172" y="540" type="curve"/>
      <point x="174" y="208" type="line"/>
      <point x="236" y="142"/>
      <point x="386" y="223"/>
    </contour>
    <contour>
      <point x="491" y="355" type="line"/>
      <point x="524" y="385"/>
      <point x="557" y="429"/>
      <point x="619" y="428" type="curve" smooth="yes"/>
      <point x="669" y="427"/>
      <point x="727" y="332"/>
      <point x="780" y="262" type="curve"/>
      <point x="760" y="229" type="line"/>
      <point x="662" y="366"/>
      <point x="551" y="341"/>
      <point x="497" y="225" type="curve"/>
    </contour>
    <component base="dvJA" xOffset="629"/>
  </outline>
</glyph>
<glyph name="dvPH_NA" format="1">
  <advance width="882"/>
  <outline>
    <contour>
      <point x="499" y="619" type="move" name="abvm.bindu"/>
    </contour>
    <contour>
      <point x="485" y="0" type="move" name="blwm.virama"/>
    </contour>
    <contour>
      <point x="488" y="619" type="move" name="abvm.e"/>
    </contour>
    <contour>
      <point x="497" y="-10" type="move" name="blwm.u"/>
    </contour>
    <contour>
      <point x="522" y="133" type="line"/>
      <point x="257" y="56" type="line"/>
      <point x="348" y="-16"/>
      <point x="237" y="-147"/>
      <point x="189" y="-128" type="curve"/>
      <point x="135" y="-103"/>
      <point x="105" y="-89"/>
      <point x="62" y="-63" type="curve"/>
      <point x="-2" y="-21"/>
      <point x="25" y="60"/>
      <point x="77" y="100" type="curve" smooth="yes"/>
      <point x="87" y="107"/>
      <point x="58" y="94"/>
      <point x="495" y="225" type="curve"/>
    </contour>
    <component base="dvPHA"/>
  </outline>
</glyph>
<glyph name="dvPH_SHA" format="1">
  <advance width="1366"/>
  <outline>
    <contour>
      <point x="-16" y="619" type="line"/>
      <point x="853" y="619" type="line"/>
      <point x="853" y="522" type="line"/>
      <point x="526" y="522" type="line"/>
      <point x="526" y="385" type="line"/>
      <point x="555" y="408"/>
      <point x="589" y="427"/>
      <point x="628" y="426" type="curve" smooth="yes"/>
      <point x="669" y="424"/>
      <point x="720" y="340"/>
      <point x="761" y="255" type="curve"/>
      <point x="699" y="213" type="line"/>
      <point x="646" y="318"/>
      <point x="575" y="307"/>
      <point x="526" y="260" type="curve"/>
      <point x="526" y="-55" type="line"/>
      <point x="402" y="1" type="line"/>
      <point x="402" y="133" type="line"/>
      <point x="366" y="99"/>
      <point x="325" y="71"/>
      <point x="284" y="71" type="curve" smooth="yes"/>
      <point x="208" y="71"/>
      <point x="117" y="180"/>
      <point x="53" y="248" type="curve" smooth="yes"/>
      <point x="45" y="256"/>
      <point x="47" y="464"/>
      <point x="47" y="522" type="curve"/>
      <point x="-16" y="522" type="line"/>
    </contour>
    <contour>
      <point x="172" y="208" type="line"/>
      <point x="227" y="149"/>
      <point x="352" y="207"/>
      <point x="402" y="292" type="curve"/>
      <point x="402" y="522" type="line"/>
      <point x="170" y="522" type="line"/>
    </contour>
    <component base="dvSHA" xOffset="675"/>
  </outline>
</glyph>
<glyph name="dvP_MA" format="1">
  <advance width="1010"/>
  <outline>
    <contour>
      <point x="-3" y="619" type="line"/>
      <point x="616" y="619" type="line"/>
      <point x="616" y="522" type="line"/>
      <point x="-3" y="522" type="line"/>
    </contour>
    <contour>
      <point x="437" y="163" type="line"/>
      <point x="399" y="118"/>
      <point x="349" y="71"/>
      <point x="297" y="71" type="curve" smooth="yes"/>
      <point x="221" y="71"/>
      <point x="130" y="180"/>
      <point x="66" y="248" type="curve" smooth="yes"/>
      <point x="57" y="258"/>
      <point x="61" y="540"/>
      <point x="61" y="540" type="curve" smooth="yes"/>
      <point x="60" y="540"/>
      <point x="183" y="540"/>
      <point x="183" y="540" type="curve"/>
      <point x="185" y="208" type="line"/>
      <point x="227" y="163"/>
      <point x="320" y="177"/>
      <point x="379" y="228" type="curve"/>
    </contour>
    <component base="dvMA" xOffset="329"/>
  </outline>
</glyph>
<glyph name="dvRA" format="1">
  <advance width="433"/>
  <outline>
    <contour>
      <point x="359" y="662" type="move" name="abvm.bindu"/>
    </contour>
    <contour>
      <point x="271" y="-122" type="move" name="blwm.virama"/>
    </contour>
    <contour>
      <point x="293" y="619" type="move" name="abvm.e"/>
    </contour>
    <contour>
      <point x="210" y="-105" type="move" name="blwm.u"/>
    </contour>
    <contour>
      <point x="-9" y="523" type="line"/>
      <point x="246" y="523" type="line"/>
      <point x="279" y="432"/>
      <point x="291" y="309"/>
      <point x="179" y="272" type="curve"/>
      <point x="166" y="305"/>
      <point x="167" y="337"/>
      <point x="155" y="350" type="curve"/>
      <point x="135" y="369"/>
      <point x="93" y="398"/>
      <point x="79" y="381" type="curve" smooth="yes"/>
      <point x="61" y="360"/>
      <point x="45" y="324"/>
      <point x="33" y="290" type="curve"/>
      <point x="93" y="122"/>
      <point x="265" y="15"/>
      <point x="388" y="-56" type="curve"/>
      <point x="416" y="-20" type="line"/>
      <point x="369" y="3"/>
      <point x="272" y="60"/>
      <point x="209" y="152" type="curve"/>
      <point x="383" y="217"/>
      <point x="406" y="383"/>
      <point x="314" y="523" type="curve"/>
      <point x="436" y="523" type="line"/>
      <point x="436" y="619" type="line"/>
      <point x="-9" y="619" type="line"/>
    </contour>
  </outline>
</glyph>
<glyph name="dvSHA_mvR" format="1">
  <advance width="670"/>
  <outline>
    <contour>
      <point x="555" y="620" type="move" name="abvm.bindu"/>
    </contour>
    <contour>
      <point x="537" y="619" type="move" name="abvm.e"/>
    </contour>
    <contour>
      <point x="477" y="538" type="line"/>
      <point x="601" y="538" type="line"/>
      <point x="601" y="-55" type="line"/>
      <point x="477" y="1" type="line"/>
    </contour>
    <contour>
      <point x="385" y="619" type="line"/>
      <point x="672" y="619" type="line"/>
      <point x="672" y="523" type="line"/>
      <point x="424" y="523" type="line"/>
    </contour>
    <contour>
      <point x="304" y="319" type="line"/>
      <point x="418" y="276"/>
      <point x="507" y="353"/>
      <point x="530" y="408" type="curve" smooth="yes"/>
      <point x="531" y="409"/>
      <point x="584" y="322"/>
      <point x="585" y="321" type="curve"/>
      <point x="495" y="239"/>
      <point x="393" y="239"/>
      <point x="284" y="292" type="curve"/>
    </contour>
    <contour>
      <point x="411" y="453" type="curve" smooth="yes"/>
      <point x="461" y="366"/>
      <point x="222" y="217"/>
      <point x="102" y="169" type="curve"/>
      <point x="14" y="241" type="line"/>
      <point x="140" y="299"/>
      <point x="401" y="418"/>
      <point x="315" y="511" type="curve" smooth="yes"/>
      <point x="262" y="568"/>
      <point x="136" y="475"/>
      <point x="228" y="371" type="curve" smooth="yes"/>
      <point x="252" y="344"/>
      <point x="285" y="326"/>
      <point x="305" y="318" type="curve"/>
      <point x="286" y="296" type="line"/>
      <point x="199" y="325"/>
      <point x="121" y="366"/>
      <point x="84" y="425" type="curve" smooth="yes"/>
      <point x="54" y="473"/>
      <point x="156" y="627"/>
      <point x="251" y="627" type="curve" smooth="yes"/>
      <point x="276" y="627"/>
      <point x="377" y="512"/>
    </contour>
    <component base="dvmvR" xOffset="694"/>
  </outline>
</glyph>
<glyph name="dvSH_CA" format="1">
  <advance width="1034"/>
  <outline>
    <contour>
      <point x="696" y="319" type="line"/>
      <point x="580" y="322"/>
      <point x="495" y="229"/>
      <point x="559" y="169" type="curve" smooth="yes"/>
      <point x="617" y="114"/>
      <point x="801" y="229"/>
      <point x="847" y="347" type="curve"/>
      <point x="915" y="251" type="line"/>
      <point x="837" y="89"/>
      <point x="633" y="37"/>
      <point x="575" y="92" type="curve" smooth="yes"/>
      <point x="515" y="148"/>
      <point x="496" y="159"/>
      <point x="443" y="220" type="curve" smooth="yes"/>
      <point x="387" y="284"/>
      <point x="533" y="401"/>
      <point x="606" y="395" type="curve"/>
    </contour>
    <contour>
      <point x="842" y="537" type="line"/>
      <point x="966" y="537" type="line"/>
      <point x="966" y="-56" type="line"/>
      <point x="842" y="0" type="line"/>
    </contour>
    <contour>
      <point x="538" y="619" type="line"/>
      <point x="1052" y="619" type="line"/>
      <point x="1052" y="523" type="line"/>
      <point x="538" y="523" type="line"/>
    </contour>
    <contour>
      <point x="424" y="619" type="line"/>
      <point x="711" y="619" type="line"/>
      <point x="711" y="523" type="line"/>
      <point x="463" y="523" type="line"/>
    </contour>
    <contour>
      <point x="303" y="319" type="line"/>
      <point x="417" y="276"/>
      <point x="507" y="395"/>
      <point x="606" y="395" type="curve" smooth="yes"/>
      <point x="607" y="395"/>
      <point x="653" y="320"/>
      <point x="653" y="318" type="curve"/>
      <point x="506" y="307"/>
      <point x="392" y="239"/>
      <point x="283" y="292" type="curve"/>
    </contour>
    <contour>
      <point x="410" y="453" type="curve" smooth="yes"/>
      <point x="460" y="366"/>
      <point x="221" y="217"/>
      <point x="101" y="169" type="curve"/>
      <point x="13" y="241" type="line"/>
      <point x="139" y="299"/>
      <point x="400" y="418"/>
      <point x="314" y="511" type="curve" smooth="yes"/>
      <point x="261" y="568"/>
      <point x="135" y="475"/>
      <point x="227" y="371" type="curve" smooth="yes"/>
      <point x="251" y="344"/>
      <point x="284" y="326"/>
      <point x="304" y="318" type="curve"/>
      <point x="285" y="296" type="line"/>
      <point x="198" y="325"/>
      <point x="120" y="366"/>
      <point x="83" y="425" type="curve" smooth="yes"/>
      <point x="53" y="473"/>
      <point x="155" y="627"/>
      <point x="250" y="627" type="curve" smooth="yes"/>
      <point x="275" y="627"/>
      <point x="376" y="512"/>
    </contour>
    <contour>
      <point x="530" y="198" type="line"/>
      <point x="486" y="160"/>
      <point x="332" y="53"/>
      <point x="220" y="-29" type="curve"/>
      <point x="143" y="60" type="line"/>
      <point x="241" y="116"/>
      <point x="408" y="223"/>
      <point x="486" y="265" type="curve"/>
    </contour>
  </outline>
</glyph>
<glyph name="dvSH_NA" format="1">
  <advance width="630"/>
  <outline>
    <contour>
      <point x="377" y="471" type="curve" smooth="yes"/>
      <point x="400" y="430"/>
      <point x="370" y="378"/>
      <point x="317" y="331" type="curve"/>
      <point x="366" y="323"/>
      <point x="410" y="332"/>
      <point x="442" y="351" type="curve"/>
      <point x="442" y="523" type="line"/>
      <point x="389" y="523" type="line"/>
      <point x="350" y="619" type="line"/>
      <point x="637" y="619" type="line"/>
      <point x="637" y="523" type="line"/>
      <point x="566" y="523" type="line"/>
      <point x="566" y="-55" type="line"/>
      <point x="442" y="1" type="line"/>
      <point x="442" y="179" type="line"/>
      <point x="355" y="160"/>
      <point x="298" y="140"/>
      <point x="253" y="123" type="curve" smooth="yes"/>
      <point x="251" y="122"/>
      <point x="249" y="121"/>
      <point x="248" y="121" type="curve" smooth="yes"/>
      <point x="397" y="33"/>
      <point x="243" y="-92"/>
      <point x="190" y="-66" type="curve" smooth="yes"/>
      <point x="136" y="-40"/>
      <point x="136" y="-40"/>
      <point x="83" y="-11" type="curve" smooth="yes"/>
      <point x="11" y="29"/>
      <point x="59" y="148"/>
      <point x="103" y="169" type="curve" smooth="yes"/>
      <point x="160" y="196"/>
      <point x="303" y="231"/>
      <point x="442" y="252" type="curve"/>
      <point x="442" y="268" type="line"/>
      <point x="392" y="263"/>
      <point x="340" y="279"/>
      <point x="284" y="304" type="curve"/>
      <point x="227" y="263"/>
      <point x="157" y="229"/>
      <point x="97" y="216" type="curve"/>
      <point x="9" y="288" type="line"/>
      <point x="64" y="301"/>
      <point x="123" y="324"/>
      <point x="173" y="353" type="curve"/>
      <point x="125" y="379"/>
      <point x="84" y="411"/>
      <point x="63" y="446" type="curve" smooth="yes"/>
      <point x="33" y="494"/>
      <point x="122" y="627"/>
      <point x="217" y="627" type="curve" smooth="yes"/>
      <point x="242" y="627"/>
      <point x="343" y="530"/>
    </contour>
    <contour>
      <point x="272" y="532" type="curve" smooth="yes"/>
      <point x="221" y="590"/>
      <point x="91" y="478"/>
      <point x="201" y="392" type="curve" smooth="yes"/>
      <point x="205" y="388"/>
      <point x="210" y="384"/>
      <point x="215" y="381" type="curve"/>
      <point x="279" y="428"/>
      <point x="313" y="485"/>
    </contour>
  </outline>
</glyph>
<glyph name="dvSH_R" format="1">
  <advance width="453"/>
  <outline>
    <contour>
      <point x="303" y="319" type="line"/>
      <point x="375" y="292"/>
      <point x="436" y="312"/>
      <point x="478" y="345" type="curve"/>
      <point x="514" y="274" type="line"/>
      <point x="442" y="242"/>
      <point x="365" y="252"/>
      <point x="283" y="292" type="curve"/>
    </contour>
    <contour>
      <point x="410" y="453" type="curve" smooth="yes"/>
      <point x="460" y="366"/>
      <point x="221" y="217"/>
      <point x="101" y="169" type="curve"/>
      <point x="13" y="241" type="line"/>
      <point x="139" y="299"/>
      <point x="400" y="418"/>
      <point x="314" y="511" type="curve" smooth="yes"/>
      <point x="261" y="568"/>
      <point x="135" y="475"/>
      <point x="227" y="371" type="curve" smooth="yes"/>
      <point x="251" y="344"/>
      <point x="284" y="326"/>
      <point x="304" y="318" type="curve"/>
      <point x="285" y="296" type="line"/>
      <point x="198" y="325"/>
      <point x="120" y="366"/>
      <point x="83" y="425" type="curve" smooth="yes"/>
      <point x="53" y="473"/>
      <point x="155" y="627"/>
      <point x="250" y="627" type="curve" smooth="yes"/>
      <point x="275" y="627"/>
      <point x="376" y="512"/>
    </contour>
    <contour>
      <point x="530" y="198" type="line"/>
      <point x="486" y="160"/>
      <point x="332" y="53"/>
      <point x="220" y="-29" type="curve"/>
      <point x="143" y="60" type="line"/>
      <point x="241" y="116"/>
      <point x="408" y="223"/>
      <point x="486" y="265" type="curve"/>
    </contour>
  </outline>
</glyph>
<glyph name="dvSS_KA" format="1">
  <advance width="1226"/>
  <outline>
    <contour>
      <point x="888" y="662" type="move" name="abvm.bindu"/>
    </contour>
    <contour>
      <point x="813" y="0" type="move" name="blwm.virama"/>
    </contour>
    <contour>
      <point x="889" y="672" type="move" name="abvm.e"/>
    </contour>
    <contour>
      <point x="812" y="-10" type="move" name="blwm.u"/>
    </contour>
    <component base="dvKA" xOffset="432"/>
  </outline>
</glyph>
<glyph name="dvSS_TTH_RA" format="1">
  <advance width="876"/>
  <outline>
    <contour>
      <point x="710" y="662" type="move" name="abvm.bindu"/>
    </contour>
    <contour>
      <point x="533" y="-189" type="move" name="blwm.virama"/>
    </contour>
    <contour>
      <point x="716" y="672" type="move" name="abvm.e"/>
    </contour>
    <contour>
      <point x="533" y="-179" type="move" name="blwm.u"/>
    </contour>
    <component base="dvRashtrasign" xOffset="905"/>
    <component base="dvTTHA" xOffset="283"/>
  </outline>
</glyph>
<glyph name="dvS_KA" format="1">
  <advance width="1305"/>
  <outline>
    <contour>
      <point x="967" y="662" type="move" name="abvm.bindu"/>
    </contour>
    <contour>
      <point x="892" y="0" type="move" name="blwm.virama"/>
    </contour>
    <contour>
      <point x="968" y="672" type="move" name="abvm.e"/>
    </contour>
    <contour>
      <point x="891" y="-10" type="move" name="blwm.u"/>
    </contour>
    <component base="dvKA" xOffset="511"/>
  </outline>
</glyph>
<glyph name="dvS_K_VA" format="1">
  <advance width="1749"/>
  <outline>
    <contour>
      <point x="-2" y="619" type="line"/>
      <point x="646" y="619" type="line"/>
      <point x="646" y="523" type="line"/>
      <point x="306" y="523" type="line"/>
      <point x="363" y="436"/>
      <point x="376" y="342"/>
      <point x="336" y="269" type="curve"/>
      <point x="393" y="244"/>
      <point x="503" y="243"/>
      <point x="558" y="358" type="curve"/>
      <point x="617" y="265" type="line"/>
      <point x="617" y="265"/>
      <point x="519" y="171"/>
      <point x="441" y="171" type="curve" smooth="yes"/>
      <point x="408" y="171"/>
      <point x="343" y="212"/>
      <point x="312" y="234" type="curve"/>
      <point x="286" y="205"/>
      <point x="250" y="181"/>
      <point x="203" y="166" type="curve"/>
      <point x="229" y="116"/>
      <point x="342" y="26"/>
      <point x="408" y="-19" type="curve"/>
      <point x="380" y="-56" type="line"/>
      <point x="259" y="20"/>
      <point x="85" y="122"/>
      <point x="25" y="290" type="curve"/>
      <point x="37" y="324"/>
      <point x="53" y="361"/>
      <point x="71" y="382" type="curve" smooth="yes"/>
      <point x="85" y="398"/>
      <point x="127" y="370"/>
      <point x="147" y="351" type="curve"/>
      <point x="159" y="338"/>
      <point x="159" y="306"/>
      <point x="170" y="269" type="curve"/>
      <point x="282" y="306"/>
      <point x="271" y="432"/>
      <point x="238" y="523" type="curve"/>
      <point x="-2" y="523" type="line"/>
    </contour>
    <component base="dvVA" xOffset="1160"/>
    <component base="dvK" xOffset="495"/>
  </outline>
</glyph>
<glyph name="dvS_PHA" format="1">
  <advance width="1344"/>
  <outline>
    <contour>
      <point x="912" y="662" type="move" name="abvm.bindu"/>
    </contour>
    <contour>
      <point x="854" y="0" type="move" name="blwm.virama"/>
    </contour>
    <contour>
      <point x="932" y="672" type="move" name="abvm.e"/>
    </contour>
    <contour>
      <point x="852" y="-10" type="move" name="blwm.u"/>
    </contour>
    <component base="dvPHA" xOffset="482"/>
    <component base="dvS" xOffset="-2"/>
  </outline>
</glyph>
<glyph name="dvS_R" format="1">
  <advance width="605"/>
  <outline>
    <contour>
      <point x="643" y="174" type="line"/>
      <point x="622" y="118"/>
      <point x="539" y="25"/>
      <point x="455" y="-35" type="curve"/>
      <point x="371" y="31" type="line"/>
      <point x="478" y="91"/>
      <point x="550" y="150"/>
      <point x="612" y="223" type="curve"/>
    </contour>
    <contour>
      <point x="299" y="532" type="line"/>
      <point x="398" y="390"/>
      <point x="378" y="224"/>
      <point x="202" y="166" type="curve"/>
      <point x="228" y="116"/>
      <point x="298" y="18"/>
      <point x="393" y="-29" type="curve"/>
      <point x="365" y="-66" type="line"/>
      <point x="236" y="3"/>
      <point x="84" y="122"/>
      <point x="24" y="290" type="curve"/>
      <point x="36" y="324"/>
      <point x="52" y="361"/>
      <point x="70" y="382" type="curve" smooth="yes"/>
      <point x="84" y="398"/>
      <point x="126" y="370"/>
      <point x="146" y="351" type="curve"/>
      <point x="158" y="338"/>
      <point x="158" y="306"/>
      <point x="169" y="269" type="curve"/>
      <point x="285" y="307"/>
      <point x="270" y="441"/>
      <point x="234" y="532" type="curve"/>
    </contour>
    <contour>
      <point x="335" y="290" type="line"/>
      <point x="366" y="252"/>
      <point x="539" y="216"/>
      <point x="607" y="358" type="curve"/>
      <point x="680" y="251" type="line"/>
      <point x="680" y="251"/>
      <point x="552" y="173"/>
      <point x="474" y="173" type="curve" smooth="yes"/>
      <point x="430" y="173"/>
      <point x="320" y="249"/>
      <point x="320" y="249" type="curve"/>
    </contour>
    <contour>
      <point x="-3" y="619" type="line"/>
      <point x="775" y="619" type="line"/>
      <point x="775" y="523" type="line"/>
      <point x="-3" y="523" type="line"/>
    </contour>
  </outline>
</glyph>
<glyph name="dvS_TH_YA" format="1">
  <advance width="1491"/>
  <outline>
    <contour>
      <point x="297" y="532" type="line"/>
      <point x="396" y="390"/>
      <point x="376" y="224"/>
      <point x="200" y="166" type="curve"/>
      <point x="226" y="116"/>
      <point x="339" y="26"/>
      <point x="405" y="-19" type="curve"/>
      <point x="377" y="-56" type="line"/>
      <point x="256" y="20"/>
      <point x="82" y="122"/>
      <point x="22" y="290" type="curve"/>
      <point x="34" y="324"/>
      <point x="50" y="361"/>
      <point x="68" y="382" type="curve" smooth="yes"/>
      <point x="82" y="398"/>
      <point x="124" y="370"/>
      <point x="144" y="351" type="curve"/>
      <point x="156" y="338"/>
      <point x="156" y="306"/>
      <point x="167" y="269" type="curve"/>
      <point x="283" y="307"/>
      <point x="268" y="441"/>
      <point x="232" y="532" type="curve"/>
    </contour>
    <contour>
      <point x="304" y="289" type="line"/>
      <point x="327" y="260"/>
      <point x="420" y="234"/>
      <point x="493" y="283" type="curve" smooth="yes"/>
      <point x="576" y="339"/>
      <point x="556" y="377"/>
      <point x="628" y="251" type="curve"/>
      <point x="628" y="251"/>
      <point x="516" y="171"/>
      <point x="438" y="171" type="curve" smooth="yes"/>
      <point x="394" y="171"/>
      <point x="289" y="248"/>
      <point x="289" y="248" type="curve"/>
    </contour>
    <contour>
      <point x="-5" y="619" type="line"/>
      <point x="583" y="619" type="line"/>
      <point x="583" y="523" type="line"/>
      <point x="-5" y="523" type="line"/>
    </contour>
    <component base="dvTH_YA" xOffset="450"/>
  </outline>
</glyph>
<glyph name="dvSix" format="1">
  <advance width="666"/>
  <outline>
    <contour>
      <point x="118" y="386" type="curve" smooth="yes"/>
      <point x="188" y="314"/>
      <point x="193" y="312"/>
      <point x="210" y="298" type="curve"/>
      <point x="229" y="318" type="line"/>
      <point x="118" y="412"/>
      <point x="268" y="515"/>
      <point x="431" y="488" type="curve"/>
      <point x="391" y="584" type="line"/>
      <point x="212" y="596"/>
      <point x="59" y="446"/>
    </contour>
    <contour>
      <point x="454" y="130" type="line"/>
      <point x="372" y="64"/>
      <point x="276" y="34"/>
      <point x="217" y="104" type="curve" smooth="yes"/>
      <point x="144" y="190"/>
      <point x="275" y="254"/>
      <point x="370" y="292" type="curve"/>
      <point x="308" y="353" type="line"/>
      <point x="231" y="344"/>
      <point x="63" y="225"/>
      <point x="104" y="171" type="curve" smooth="yes"/>
      <point x="154" y="106"/>
      <point x="191" y="60"/>
      <point x="250" y="1" type="curve" smooth="yes"/>
      <point x="309" y="-58"/>
      <point x="419" y="-20"/>
      <point x="513" y="55" type="curve" smooth="yes"/>
    </contour>
    <contour>
      <point x="593" y="-118" type="curve"/>
      <point x="632" y="-91" type="line"/>
      <point x="517" y="52" type="line"/>
      <point x="570" y="105" type="line" smooth="yes"/>
      <point x="600" y="135"/>
      <point x="583" y="181"/>
      <point x="556" y="213" type="curve" smooth="yes"/>
      <point x="524" y="251"/>
      <point x="489" y="279"/>
      <point x="442" y="249" type="curve" smooth="yes"/>
      <point x="424" y="238"/>
      <point x="387" y="210"/>
      <point x="372" y="180" type="curve" smooth="yes"/>
      <point x="365" y="166"/>
      <point x="388" y="139"/>
    </contour>
  </outline>
</glyph>
<glyph name="dvTTA" format="1">
  <advance width="600"/>
  <outline>
    <contour>
      <point x="442" y="618" type="move" name="abvm.bindu"/>
    </contour>
    <contour>
      <point x="269" y="-2" type="move" name="blwm.virama"/>
    </contour>
    <contour>
      <point x="424" y="619" type="move" name="abvm.e"/>
    </contour>
    <contour>
      <point x="291" y="3" type="move" name="blwm.u"/>
    </contour>
    <contour>
      <point x="349" y="468" type="line"/>
      <point x="349" y="523" type="line"/>
      <point x="-8" y="523" type="line"/>
      <point x="-8" y="619" type="line"/>
      <point x="610" y="619" type="line"/>
      <point x="610" y="523" type="line"/>
      <point x="460" y="523" type="line"/>
      <point x="460" y="381" type="line"/>
      <point x="266" y="381" type="line" smooth="yes"/>
      <point x="161" y="381"/>
      <point x="121" y="92"/>
      <point x="292" y="79" type="curve" smooth="yes"/>
      <point x="388" y="71"/>
      <point x="432" y="151"/>
      <point x="483" y="212" type="curve"/>
      <point x="568" y="137" type="line"/>
      <point x="509" y="55"/>
      <point x="458" y="-9"/>
      <point x="343" y="-20" type="curve"/>
      <point x="293" y="-24"/>
      <point x="261" y="-4"/>
      <point x="228" y="23" type="curve" smooth="yes"/>
      <point x="164" y="75"/>
      <point x="102" y="125"/>
      <point x="60" y="187" type="curve" smooth="yes"/>
      <point x="10" y="261"/>
      <point x="88" y="449"/>
      <point x="165" y="457" type="curve"/>
    </contour>
  </outline>
</glyph>
<glyph name="dvTTH_TTHA" format="1">
  <advance width="605"/>
  <outline>
    <contour>
      <point x="419" y="619" type="move" name="abvm.bindu"/>
    </contour>
    <contour>
      <point x="308" y="-320" type="move" name="blwm.virama"/>
    </contour>
    <contour>
      <point x="404" y="619" type="move" name="abvm.e"/>
    </contour>
    <contour>
      <point x="308" y="-339" type="move" name="blwm.u"/>
    </contour>
    <contour>
      <point x="-8" y="619" type="line"/>
      <point x="610" y="619" type="line"/>
      <point x="610" y="523" type="line"/>
      <point x="-8" y="523" type="line"/>
    </contour>
    <contour>
      <point x="349" y="1" type="line"/>
      <point x="349" y="89" type="line"/>
      <point x="460" y="89" type="line"/>
      <point x="460" y="-76" type="line"/>
      <point x="294" y="-73" type="line" smooth="yes"/>
      <point x="189" y="-71"/>
      <point x="119" y="-332"/>
      <point x="308" y="-335" type="curve" smooth="yes"/>
      <point x="424" y="-337"/>
      <point x="558" y="-220"/>
      <point x="456" y="-76" type="curve"/>
      <point x="459" y="-48" type="line"/>
      <point x="759" y="-222"/>
      <point x="396" y="-534"/>
      <point x="228" y="-394" type="curve" smooth="yes"/>
      <point x="165" y="-341"/>
      <point x="138" y="-299"/>
      <point x="96" y="-237" type="curve" smooth="yes"/>
      <point x="46" y="-163"/>
      <point x="115" y="-19"/>
      <point x="192" y="-11" type="curve"/>
    </contour>
    <contour>
      <point x="349" y="469" type="line"/>
      <point x="349" y="557" type="line"/>
      <point x="460" y="557" type="line"/>
      <point x="460" y="392" type="line"/>
      <point x="294" y="395" type="line" smooth="yes"/>
      <point x="189" y="397"/>
      <point x="119" y="136"/>
      <point x="308" y="133" type="curve" smooth="yes"/>
      <point x="424" y="131"/>
      <point x="558" y="248"/>
      <point x="456" y="392" type="curve"/>
      <point x="459" y="420" type="line"/>
      <point x="759" y="246"/>
      <point x="396" y="-66"/>
      <point x="228" y="74" type="curve" smooth="yes"/>
      <point x="165" y="127"/>
      <point x="138" y="169"/>
      <point x="96" y="231" type="curve" smooth="yes"/>
      <point x="46" y="305"/>
      <point x="115" y="449"/>
      <point x="192" y="457" type="curve"/>
    </contour>
  </outline>
</glyph>
<glyph name="dvT_NA" format="1">
  <advance width="606"/>
  <outline>
    <contour>
      <point x="409" y="538" type="line"/>
      <point x="533" y="538" type="line"/>
      <point x="533" y="-55" type="line"/>
      <point x="409" y="1" type="line"/>
    </contour>
    <contour>
      <point x="-6" y="619" type="line"/>
      <point x="611" y="619" type="line"/>
      <point x="611" y="523" type="line"/>
      <point x="-6" y="523" type="line"/>
    </contour>
    <contour>
      <point x="432" y="273" type="line"/>
      <point x="352" y="323"/>
      <point x="161" y="328"/>
      <point x="57" y="317" type="curve"/>
      <point x="19" y="441" type="line"/>
      <point x="103" y="452"/>
      <point x="348" y="416"/>
      <point x="450" y="352" type="curve"/>
    </contour>
    <contour>
      <point x="524" y="212" type="line"/>
      <point x="225" y="125" type="line" smooth="yes"/>
      <point x="-1" y="59"/>
      <point x="251" y="-56"/>
      <point x="224" y="134" type="curve"/>
      <point x="262" y="151" type="line"/>
      <point x="381" y="82"/>
      <point x="261" y="-64"/>
      <point x="210" y="-44" type="curve"/>
      <point x="156" y="-19"/>
      <point x="126" y="-5"/>
      <point x="83" y="21" type="curve"/>
      <point x="19" y="63"/>
      <point x="43" y="148"/>
      <point x="98" y="184" type="curve"/>
      <point x="107" y="192"/>
      <point x="60" y="173"/>
      <point x="497" y="304" type="curve"/>
    </contour>
  </outline>
</glyph>
<glyph name="dvT_R" format="1">
  <advance width="332"/>
  <outline>
    <contour>
      <point x="-7" y="619" type="line"/>
      <point x="469" y="619" type="line"/>
      <point x="469" y="523" type="line"/>
      <point x="-7" y="523" type="line"/>
    </contour>
    <contour>
      <point x="361" y="273" type="line"/>
      <point x="281" y="323"/>
      <point x="160" y="328"/>
      <point x="56" y="317" type="curve"/>
      <point x="18" y="441" type="line"/>
      <point x="102" y="452"/>
      <point x="277" y="416"/>
      <point x="379" y="352" type="curve"/>
    </contour>
    <contour>
      <point x="382" y="219" type="line"/>
      <point x="350" y="176"/>
      <point x="254" y="113"/>
      <point x="145" y="53" type="curve"/>
      <point x="68" y="142" type="line"/>
      <point x="181" y="189"/>
      <point x="283" y="239"/>
      <point x="338" y="286" type="curve"/>
    </contour>
  </outline>
</glyph>
<glyph name="dvUU" format="1">
  <advance width="782"/>
  <outline>
    <contour>
      <point x="433" y="617" type="move" name="abvm.bindu"/>
    </contour>
    <contour>
      <point x="410" y="396" type="curve" smooth="yes"/>
      <point x="407" y="369"/>
      <point x="393" y="299"/>
      <point x="238" y="246" type="curve"/>
      <point x="179" y="329" type="line"/>
      <point x="265" y="355"/>
      <point x="396" y="396"/>
      <point x="237" y="533" type="curve"/>
      <point x="250" y="548" type="line"/>
      <point x="276" y="542"/>
      <point x="415" y="444"/>
    </contour>
    <contour>
      <point x="352" y="308" type="line"/>
      <point x="401" y="275"/>
      <point x="499" y="204"/>
      <point x="511" y="152" type="curve" smooth="yes"/>
      <point x="534" y="49"/>
      <point x="322" y="-62"/>
      <point x="221" y="-2" type="curve" smooth="yes"/>
      <point x="150" y="41"/>
      <point x="106" y="136"/>
      <point x="34" y="270" type="curve"/>
      <point x="59" y="288" type="line"/>
      <point x="116" y="197"/>
      <point x="192" y="17"/>
      <point x="346" y="99" type="curve" smooth="yes"/>
      <point x="438" y="148"/>
      <point x="412" y="228"/>
      <point x="334" y="293" type="curve"/>
    </contour>
    <contour>
      <point x="364" y="300" type="line"/>
      <point x="393" y="327"/>
      <point x="486" y="397"/>
      <point x="540" y="395" type="curve" smooth="yes"/>
      <point x="576" y="394"/>
      <point x="626" y="348"/>
      <point x="663" y="306" type="curve" smooth="yes"/>
      <point x="722" y="241"/>
      <point x="715" y="133"/>
      <point x="627" y="81" type="curve"/>
      <point x="555" y="142" type="line"/>
      <point x="721" y="241"/>
      <point x="605" y="435"/>
      <point x="441" y="236" type="curve"/>
    </contour>
    <contour>
      <point x="-8" y="619" type="line"/>
      <point x="787" y="619" type="line"/>
      <point x="787" y="523" type="line"/>
      <point x="-8" y="523" type="line"/>
    </contour>
  </outline>
</glyph>
<glyph name="dvU" format="1">
  <advance width="553"/>
  <outline>
    <contour>
      <point x="481" y="662" type="move" name="abvm.bindu"/>
    </contour>
    <contour>
      <point x="413" y="396" type="curve" smooth="yes"/>
      <point x="418" y="444"/>
      <point x="279" y="542"/>
      <point x="253" y="548" type="curve"/>
      <point x="240" y="533" type="line"/>
      <point x="399" y="396"/>
      <point x="268" y="355"/>
      <point x="182" y="329" type="curve"/>
      <point x="241" y="246" type="line"/>
      <point x="396" y="299"/>
      <point x="410" y="369"/>
    </contour>
    <contour>
      <point x="337" y="293" type="line"/>
      <point x="415" y="228"/>
      <point x="441" y="148"/>
      <point x="349" y="99" type="curve" smooth="yes"/>
      <point x="195" y="17"/>
      <point x="119" y="197"/>
      <point x="62" y="288" type="curve"/>
      <point x="37" y="270" type="line"/>
      <point x="109" y="136"/>
      <point x="153" y="41"/>
      <point x="224" y="-2" type="curve" smooth="yes"/>
      <point x="325" y="-62"/>
      <point x="537" y="49"/>
      <point x="514" y="152" type="curve" smooth="yes"/>
      <point x="502" y="204"/>
      <point x="404" y="275"/>
      <point x="355" y="308" type="curve"/>
    </contour>
    <contour>
      <point x="-5" y="522" type="line"/>
      <point x="559" y="522" type="line"/>
      <point x="559" y="619" type="line"/>
      <point x="-5" y="619" type="line"/>
    </contour>
  </outline>
</glyph>
<glyph name="dvmAI" format="1">
  <advance width="0"/>
  <outline>
    <contour>
      <point x="-98" y="612" type="move" name="_abvm.e"/>
    </contour>
    <contour>
      <point x="-97" y="614" type="line"/>
      <point x="-171" y="745"/>
      <point x="-211" y="826"/>
      <point x="-295" y="881" type="curve" smooth="yes"/>
      <point x="-357" y="921"/>
      <point x="-498" y="870"/>
      <point x="-559" y="847" type="curve"/>
      <point x="-493" y="778" type="line"/>
      <point x="-439" y="803"/>
      <point x="-378" y="829"/>
      <point x="-316" y="817" type="curve" smooth="yes"/>
      <point x="-265" y="807"/>
      <point x="-167" y="684"/>
      <point x="-139" y="625" type="curve"/>
      <point x="-188" y="675"/>
      <point x="-261" y="756"/>
      <point x="-315" y="768" type="curve" smooth="yes"/>
      <point x="-352" y="776"/>
      <point x="-403" y="761"/>
      <point x="-468" y="730" type="curve"/>
      <point x="-411" y="670" type="line"/>
      <point x="-316" y="726"/>
      <point x="-273" y="722"/>
      <point x="-170" y="613" type="curve"/>
    </contour>
  </outline>
</glyph>
<glyph name="dvmAI_Reph_Anusvara" format="1">
  <advance width="0"/>
  <outline>
    <contour>
      <point x="-82" y="672" type="move" name="_abvm.e"/>
    </contour>
    <component base="dvmAI"/>
    <component base="dvAnusvara" xScale="0.771000027657" yScale="0.771000027657" xOffset="1" yOffset="131"/>
    <component base="dvReph.amI" xOffset="-36"/>
  </outline>
</glyph>
<glyph name="dvmE_Reph_Anusvara" format="1">
  <advance width="-64"/>
  <outline>
    <contour>
      <point x="-146" y="672" type="move" name="_abvm.e"/>
    </contour>
    <contour>
      <point x="-60" y="781" type="curve" smooth="yes"/>
      <point x="-31" y="781"/>
      <point x="-4" y="759"/>
      <point x="-4" y="726" type="curve" smooth="yes"/>
      <point x="-4" y="691"/>
      <point x="-32" y="670"/>
      <point x="-60" y="670" type="curve" smooth="yes"/>
      <point x="-90" y="670"/>
      <point x="-117" y="692"/>
      <point x="-117" y="726" type="curve" smooth="yes"/>
      <point x="-117" y="759"/>
      <point x="-90" y="781"/>
    </contour>
    <component base="dvmE_Reph" xOffset="-64"/>
  </outline>
</glyph>
<glyph name="dvmI.a04" format="1">
  <advance width="270"/>
  <outline>
    <contour>
      <point x="795" y="587" type="move" name="abvm.i"/>
    </contour>
    <contour>
      <point x="73" y="536" type="line"/>
      <point x="197" y="536" type="line"/>
      <point x="197" y="-57" type="line"/>
      <point x="73" y="-1" type="line"/>
    </contour>
    <contour>
      <point x="-3" y="619" type="line"/>
      <point x="274" y="619" type="line"/>
      <point x="274" y="523" type="line"/>
      <point x="-3" y="523" type="line"/>
    </contour>
    <contour>
      <point x="80" y="604" type="line"/>
      <point x="38" y="641"/>
      <point x="7" y="703"/>
      <point x="22" y="745" type="curve" smooth="yes"/>
      <point x="38" y="788"/>
      <point x="162" y="862"/>
      <point x="200" y="860" type="curve" smooth="yes"/>
      <point x="252" y="857"/>
      <point x="789" y="637"/>
      <point x="839" y="600" type="curve"/>
      <point x="775" y="601" type="line"/>
      <point x="399" y="745"/>
      <point x="13" y="832"/>
      <point x="196" y="604" type="curve"/>
    </contour>
  </outline>
</glyph>
<glyph name="dvmI.a06" format="1">
  <advance width="268"/>
  <outline>
    <contour>
      <point x="921" y="587" type="move" name="abvm.i"/>
    </contour>
    <contour>
      <point x="73" y="536" type="line"/>
      <point x="197" y="536" type="line"/>
      <point x="197" y="-57" type="line"/>
      <point x="73" y="-1" type="line"/>
    </contour>
    <contour>
      <point x="-3" y="619" type="line"/>
      <point x="274" y="619" type="line"/>
      <point x="274" y="523" type="line"/>
      <point x="-3" y="523" type="line"/>
    </contour>
    <contour>
      <point x="80" y="604" type="line"/>
      <point x="38" y="641"/>
      <point x="12" y="722"/>
      <point x="27" y="764" type="curve" smooth="yes"/>
      <point x="43" y="807"/>
      <point x="232" y="862"/>
      <point x="270" y="860" type="curve" smooth="yes"/>
      <point x="322" y="857"/>
      <point x="903" y="637"/>
      <point x="953" y="600" type="curve"/>
      <point x="889" y="601" type="line"/>
      <point x="488" y="741"/>
      <point x="28" y="870"/>
      <point x="196" y="604" type="curve"/>
    </contour>
  </outline>
</glyph>
<glyph name="dvmI.a09" format="1">
  <advance width="270"/>
  <outline>
    <contour>
      <point x="988" y="592" type="move" name="abvm.i"/>
    </contour>
    <contour>
      <point x="73" y="536" type="line"/>
      <point x="197" y="536" type="line"/>
      <point x="197" y="-57" type="line"/>
      <point x="73" y="-1" type="line"/>
    </contour>
    <contour>
      <point x="-3" y="619" type="line"/>
      <point x="274" y="619" type="line"/>
      <point x="274" y="523" type="line"/>
      <point x="-3" y="523" type="line"/>
    </contour>
    <contour>
      <point x="80" y="604" type="line"/>
      <point x="38" y="641"/>
      <point x="12" y="722"/>
      <point x="27" y="764" type="curve" smooth="yes"/>
      <point x="43" y="807"/>
      <point x="312" y="860"/>
      <point x="350" y="860" type="curve" smooth="yes"/>
      <point x="437" y="860"/>
      <point x="977" y="625"/>
      <point x="1033" y="600" type="curve"/>
      <point x="949" y="601" type="line"/>
      <point x="587" y="726"/>
      <point x="18" y="875"/>
      <point x="196" y="604" type="curve"/>
    </contour>
  </outline>
</glyph>
<glyph name="dvmI.a10" format="1">
  <advance width="272"/>
  <outline>
    <contour>
      <point x="1047" y="587" type="move" name="abvm.i"/>
    </contour>
    <contour>
      <point x="73" y="536" type="line"/>
      <point x="197" y="536" type="line"/>
      <point x="197" y="-57" type="line"/>
      <point x="73" y="-1" type="line"/>
    </contour>
    <contour>
      <point x="-3" y="619" type="line"/>
      <point x="274" y="619" type="line"/>
      <point x="274" y="523" type="line"/>
      <point x="-3" y="523" type="line"/>
    </contour>
    <contour>
      <point x="80" y="604" type="line"/>
      <point x="38" y="641"/>
      <point x="12" y="722"/>
      <point x="27" y="764" type="curve" smooth="yes"/>
      <point x="43" y="807"/>
      <point x="332" y="860"/>
      <point x="370" y="860" type="curve" smooth="yes"/>
      <point x="457" y="860"/>
      <point x="1037" y="625"/>
      <point x="1093" y="600" type="curve"/>
      <point x="1009" y="601" type="line"/>
      <point x="656" y="710"/>
      <point x="11" y="879"/>
      <point x="196" y="604" type="curve"/>
    </contour>
  </outline>
</glyph>
<glyph name="dvmI.a14" format="1">
  <advance width="270"/>
  <outline>
    <contour>
      <point x="1262" y="587" type="move" name="abvm.i"/>
    </contour>
    <contour>
      <point x="73" y="536" type="line"/>
      <point x="197" y="536" type="line"/>
      <point x="197" y="-57" type="line"/>
      <point x="73" y="-1" type="line"/>
    </contour>
    <contour>
      <point x="-3" y="619" type="line"/>
      <point x="274" y="619" type="line"/>
      <point x="274" y="523" type="line"/>
      <point x="-3" y="523" type="line"/>
    </contour>
    <contour>
      <point x="80" y="604" type="line"/>
      <point x="38" y="641"/>
      <point x="12" y="722"/>
      <point x="27" y="764" type="curve" smooth="yes"/>
      <point x="43" y="807"/>
      <point x="302" y="870"/>
      <point x="340" y="870" type="curve" smooth="yes"/>
      <point x="427" y="870"/>
      <point x="1217" y="625"/>
      <point x="1273" y="600" type="curve"/>
      <point x="1209" y="601" type="line"/>
      <point x="793" y="712"/>
      <point x="-20" y="925"/>
      <point x="196" y="604" type="curve"/>
    </contour>
  </outline>
</glyph>
<glyph name="dvmI.a15" format="1">
  <advance width="270"/>
  <outline>
    <contour>
      <point x="1323" y="587" type="move" name="abvm.i"/>
    </contour>
    <contour>
      <point x="-3" y="619" type="line"/>
      <point x="66" y="619" type="line"/>
      <point x="32" y="660"/>
      <point x="14" y="727"/>
      <point x="27" y="764" type="curve" smooth="yes"/>
      <point x="43" y="807"/>
      <point x="302" y="870"/>
      <point x="340" y="870" type="curve" smooth="yes"/>
      <point x="427" y="870"/>
      <point x="1108" y="684"/>
      <point x="1343" y="600" type="curve"/>
      <point x="1279" y="601" type="line"/>
      <point x="860" y="693"/>
      <point x="3" y="907"/>
      <point x="186" y="619" type="curve"/>
      <point x="274" y="619" type="line"/>
      <point x="274" y="523" type="line"/>
      <point x="197" y="523" type="line"/>
      <point x="197" y="-57" type="line"/>
      <point x="73" y="-1" type="line"/>
      <point x="73" y="523" type="line"/>
      <point x="-3" y="523" type="line"/>
    </contour>
  </outline>
</glyph>
<glyph name="dvmI.a18" format="1">
  <advance width="273"/>
  <outline>
    <contour>
      <point x="1437" y="587" type="move" name="abvm.i"/>
    </contour>
    <contour>
      <point x="-3" y="619" type="line"/>
      <point x="67" y="619" type="line"/>
      <point x="39" y="660"/>
      <point x="44" y="727"/>
      <point x="57" y="764" type="curve" smooth="yes"/>
      <point x="73" y="807"/>
      <point x="332" y="880"/>
      <point x="370" y="880" type="curve" smooth="yes"/>
      <point x="457" y="880"/>
      <point x="1218" y="684"/>
      <point x="1453" y="600" type="curve"/>
      <point x="1389" y="601" type="line"/>
      <point x="797" y="737"/>
      <point x="106" y="921"/>
      <point x="191" y="619" type="curve"/>
      <point x="274" y="619" type="line"/>
      <point x="274" y="523" type="line"/>
      <point x="197" y="523" type="line"/>
      <point x="197" y="-57" type="line"/>
      <point x="73" y="-1" type="line"/>
      <point x="73" y="523" type="line"/>
      <point x="-3" y="523" type="line"/>
    </contour>
  </outline>
</glyph>
<glyph name="dvmI.a19" format="1">
  <advance width="273"/>
  <outline>
    <contour>
      <point x="1472" y="587" type="move" name="abvm.i"/>
    </contour>
    <contour>
      <point x="73" y="536" type="line"/>
      <point x="197" y="536" type="line"/>
      <point x="197" y="-57" type="line"/>
      <point x="73" y="-1" type="line"/>
    </contour>
    <contour>
      <point x="-3" y="619" type="line"/>
      <point x="274" y="619" type="line"/>
      <point x="274" y="523" type="line"/>
      <point x="-3" y="523" type="line"/>
    </contour>
    <contour>
      <point x="80" y="604" type="line"/>
      <point x="66" y="667"/>
      <point x="64" y="721"/>
      <point x="79" y="763" type="curve" smooth="yes"/>
      <point x="95" y="806"/>
      <point x="624" y="866"/>
      <point x="661" y="860" type="curve" smooth="yes"/>
      <point x="733" y="848"/>
      <point x="1457" y="625"/>
      <point x="1513" y="600" type="curve"/>
      <point x="1409" y="601" type="line"/>
      <point x="1033" y="710"/>
      <point x="705" y="779"/>
      <point x="507" y="758" type="curve" smooth="yes"/>
      <point x="403" y="747"/>
      <point x="174" y="730"/>
      <point x="196" y="604" type="curve"/>
    </contour>
  </outline>
</glyph>
<glyph name="dvmI.a24" format="1">
  <advance width="270"/>
  <outline>
    <contour>
      <point x="1663" y="587" type="move" name="abvm.i"/>
    </contour>
    <contour>
      <point x="73" y="536" type="line"/>
      <point x="197" y="536" type="line"/>
      <point x="197" y="-57" type="line"/>
      <point x="73" y="-1" type="line"/>
    </contour>
    <contour>
      <point x="-3" y="619" type="line"/>
      <point x="274" y="619" type="line"/>
      <point x="274" y="523" type="line"/>
      <point x="-3" y="523" type="line"/>
    </contour>
    <contour>
      <point x="80" y="604" type="line"/>
      <point x="70" y="667"/>
      <point x="58" y="726"/>
      <point x="73" y="768" type="curve" smooth="yes"/>
      <point x="89" y="811"/>
      <point x="844" y="876"/>
      <point x="881" y="870" type="curve" smooth="yes"/>
      <point x="953" y="858"/>
      <point x="1657" y="625"/>
      <point x="1713" y="600" type="curve"/>
      <point x="1609" y="601" type="line"/>
      <point x="1223" y="723"/>
      <point x="983" y="769"/>
      <point x="779" y="776" type="curve" smooth="yes"/>
      <point x="615" y="782"/>
      <point x="106" y="752"/>
      <point x="196" y="604" type="curve"/>
    </contour>
  </outline>
</glyph>
<glyph name="dvmI.a26" format="1">
  <advance width="271"/>
  <outline>
    <contour>
      <point x="1735" y="587" type="move" name="abvm.i"/>
    </contour>
    <contour>
      <point x="73" y="536" type="line"/>
      <point x="197" y="536" type="line"/>
      <point x="197" y="-57" type="line"/>
      <point x="73" y="-1" type="line"/>
    </contour>
    <contour>
      <point x="-3" y="619" type="line"/>
      <point x="274" y="619" type="line"/>
      <point x="274" y="523" type="line"/>
      <point x="-3" y="523" type="line"/>
    </contour>
    <contour>
      <point x="80" y="604" type="line"/>
      <point x="70" y="667"/>
      <point x="58" y="726"/>
      <point x="73" y="768" type="curve" smooth="yes"/>
      <point x="89" y="811"/>
      <point x="914" y="876"/>
      <point x="951" y="870" type="curve" smooth="yes"/>
      <point x="1023" y="858"/>
      <point x="1727" y="625"/>
      <point x="1783" y="600" type="curve"/>
      <point x="1679" y="601" type="line"/>
      <point x="1293" y="723"/>
      <point x="1079" y="759"/>
      <point x="875" y="766" type="curve" smooth="yes"/>
      <point x="711" y="772"/>
      <point x="113" y="759"/>
      <point x="196" y="604" type="curve"/>
    </contour>
  </outline>
</glyph>
<glyph name="dvmI.a27" format="1">
  <advance width="271"/>
  <outline>
    <contour>
      <point x="1771" y="587" type="move" name="abvm.i"/>
    </contour>
    <contour>
      <point x="-3" y="619" type="line"/>
      <point x="75" y="619" type="line"/>
      <point x="60" y="677"/>
      <point x="64" y="733"/>
      <point x="82" y="754" type="curve" smooth="yes"/>
      <point x="111" y="789"/>
      <point x="372" y="880"/>
      <point x="410" y="880" type="curve" smooth="yes"/>
      <point x="497" y="880"/>
      <point x="1290" y="759"/>
      <point x="1783" y="600" type="curve"/>
      <point x="1719" y="601" type="line"/>
      <point x="1094" y="742"/>
      <point x="184" y="943"/>
      <point x="195" y="619" type="curve"/>
      <point x="274" y="619" type="line"/>
      <point x="274" y="523" type="line"/>
      <point x="197" y="523" type="line"/>
      <point x="197" y="-57" type="line"/>
      <point x="73" y="-1" type="line"/>
      <point x="73" y="523" type="line"/>
      <point x="-3" y="523" type="line"/>
    </contour>
  </outline>
</glyph>
<glyph name="dvmI.a30" format="1">
  <advance width="287"/>
  <outline>
    <contour>
      <point x="1889" y="587" type="move" name="abvm.i"/>
    </contour>
  </outline>
</glyph>
<glyph name="dvmI.a31" format="1">
  <advance width="271"/>
  <outline>
    <contour>
      <point x="1924" y="587" type="move" name="abvm.i"/>
    </contour>
    <contour>
      <point x="73" y="536" type="line"/>
      <point x="197" y="536" type="line"/>
      <point x="197" y="-57" type="line"/>
      <point x="73" y="-1" type="line"/>
    </contour>
    <contour>
      <point x="-3" y="619" type="line"/>
      <point x="274" y="619" type="line"/>
      <point x="274" y="523" type="line"/>
      <point x="-3" y="523" type="line"/>
    </contour>
    <contour>
      <point x="80" y="604" type="line"/>
      <point x="70" y="667"/>
      <point x="73" y="737"/>
      <point x="88" y="779" type="curve" smooth="yes"/>
      <point x="104" y="822"/>
      <point x="1151" y="879"/>
      <point x="1188" y="873" type="curve" smooth="yes"/>
      <point x="1260" y="861"/>
      <point x="1907" y="625"/>
      <point x="1963" y="600" type="curve"/>
      <point x="1859" y="601" type="line"/>
      <point x="1389" y="744"/>
      <point x="1298" y="811"/>
      <point x="920" y="776" type="curve" smooth="yes"/>
      <point x="717" y="757"/>
      <point x="97" y="751"/>
      <point x="196" y="604" type="curve"/>
    </contour>
  </outline>
</glyph>
<glyph name="dvmI" format="1">
  <advance width="269"/>
  <outline>
    <contour>
      <point x="186" y="604" type="line"/>
      <point x="170" y="621"/>
      <point x="137" y="649"/>
      <point x="136" y="684" type="curve" smooth="yes"/>
      <point x="134" y="733"/>
      <point x="200" y="824"/>
      <point x="384" y="700" type="curve" smooth="yes"/>
      <point x="534" y="600" type="line"/>
      <point x="609" y="600" type="line"/>
      <point x="483" y="693"/>
      <point x="305" y="861"/>
      <point x="209" y="861" type="curve" smooth="yes"/>
      <point x="131" y="861"/>
      <point x="38" y="788"/>
      <point x="22" y="745" type="curve" smooth="yes"/>
      <point x="7" y="703"/>
      <point x="38" y="641"/>
      <point x="80" y="604" type="curve"/>
    </contour>
    <contour>
      <point x="-3" y="522" type="line"/>
      <point x="274" y="522" type="line"/>
      <point x="274" y="619" type="line"/>
      <point x="-3" y="619" type="line"/>
    </contour>
    <contour>
      <point x="73" y="-1" type="line"/>
      <point x="197" y="-57" type="line"/>
      <point x="197" y="536" type="line"/>
      <point x="73" y="536" type="line"/>
    </contour>
  </outline>
</glyph>
<glyph name="dvmU" format="1">
  <advance width="31"/>
  <outline>
    <contour>
      <point x="-130" y="0" type="move" name="_blwm.u"/>
    </contour>
    <contour>
      <point x="-165" y="14" type="curve" smooth="yes"/>
      <point x="-119" y="11"/>
      <point x="-33" y="-73"/>
      <point x="10" y="-125" type="curve" smooth="yes"/>
      <point x="90" y="-220"/>
      <point x="6" y="-313"/>
      <point x="-117" y="-330" type="curve"/>
      <point x="-256" y="-348"/>
      <point x="-356" y="-243"/>
      <point x="-450" y="-128" type="curve"/>
      <point x="-417" y="-103" type="line"/>
      <point x="-274" y="-277"/>
      <point x="-102" y="-281"/>
      <point x="-61" y="-172" type="curve" smooth="yes"/>
      <point x="-39" y="-115"/>
      <point x="-107" y="-50"/>
      <point x="-161" y="-81" type="curve" smooth="yes"/>
      <point x="-248" y="-130" type="line"/>
      <point x="-328" y="-56" type="line"/>
      <point x="-271" y="-22"/>
      <point x="-198" y="16"/>
    </contour>
  </outline>
</glyph>
<glyph name="dvmvR" format="1">
  <advance width="-45"/>
  <outline>
    <contour>
      <point x="-218" y="-10" type="move" name="_blwm.virama"/>
    </contour>
    <contour>
      <point x="-201" y="16" type="curve"/>
      <point x="-92" y="-56" type="line"/>
      <point x="-490" y="-84"/>
      <point x="-336" y="-404"/>
      <point x="-145" y="-240" type="curve"/>
      <point x="-33" y="-305" type="line"/>
      <point x="-119" y="-394"/>
      <point x="-273" y="-369"/>
      <point x="-306" y="-342" type="curve" smooth="yes"/>
      <point x="-354" y="-303"/>
      <point x="-399" y="-262"/>
      <point x="-433" y="-213" type="curve" smooth="yes"/>
      <point x="-484" y="-140"/>
      <point x="-415" y="-21"/>
    </contour>
  </outline>
</glyph>
<glyph name="dvvL" format="1">
  <advance width="737"/>
  <outline>
    <contour>
      <point x="575" y="621" type="move" name="abvm.bindu"/>
    </contour>
    <contour>
      <point x="556" y="619" type="move" name="abvm.e"/>
    </contour>
    <contour>
      <point x="485" y="538" type="line"/>
      <point x="609" y="538" type="line"/>
      <point x="609" y="318" type="line"/>
      <point x="485" y="374" type="line"/>
    </contour>
    <contour>
      <point x="-10" y="619" type="line"/>
      <point x="747" y="619" type="line"/>
      <point x="747" y="523" type="line"/>
      <point x="-10" y="523" type="line"/>
    </contour>
    <contour>
      <point x="707" y="-110" type="line"/>
      <point x="612" y="-196"/>
      <point x="548" y="-169"/>
      <point x="517" y="-143" type="curve" smooth="yes"/>
      <point x="472" y="-106"/>
      <point x="439" y="-61"/>
      <point x="407" y="-15" type="curve" smooth="yes"/>
      <point x="326" y="101"/>
      <point x="688" y="195"/>
      <point x="595" y="289" type="curve" smooth="yes"/>
      <point x="504" y="381"/>
      <point x="371" y="215"/>
      <point x="350" y="122" type="curve"/>
      <point x="270" y="185" type="line"/>
      <point x="281" y="232"/>
      <point x="365" y="395"/>
      <point x="484" y="400" type="curve" smooth="yes"/>
      <point x="520" y="401"/>
      <point x="655" y="305"/>
      <point x="683" y="259" type="curve" smooth="yes"/>
      <point x="766" y="123"/>
      <point x="435" y="54"/>
      <point x="504" y="-58" type="curve" smooth="yes"/>
      <point x="525" y="-92"/>
      <point x="581" y="-100"/>
      <point x="621" y="-43" type="curve"/>
    </contour>
    <contour>
      <point x="322" y="266" type="line"/>
      <point x="250" y="316"/>
      <point x="194" y="319"/>
      <point x="159" y="285" type="curve" smooth="yes"/>
      <point x="99" y="226"/>
      <point x="175" y="65"/>
      <point x="285" y="-23" type="curve"/>
      <point x="258" y="-57" type="line"/>
      <point x="159" y="30"/>
      <point x="24" y="190"/>
      <point x="16" y="253" type="curve" smooth="yes"/>
      <point x="8" y="319"/>
      <point x="154" y="432"/>
      <point x="209" y="414" type="curve" smooth="yes"/>
      <point x="249" y="401"/>
      <point x="314" y="336"/>
      <point x="350" y="298" type="curve"/>
    </contour>
  </outline>
</glyph>
<glyph name="indianrupee" format="1">
  <advance width="699"/>
  <outline>
    <contour>
      <point x="60" y="365" type="line"/>
      <point x="413" y="365" type="line"/>
      <point x="400" y="310"/>
      <point x="355" y="264"/>
      <point x="243" y="255" type="curve"/>
      <point x="230" y="288"/>
      <point x="223" y="306"/>
      <point x="211" y="319" type="curve"/>
      <point x="191" y="338"/>
      <point x="155" y="352"/>
      <point x="141" y="335" type="curve" smooth="yes"/>
      <point x="123" y="314"/>
      <point x="124" y="289"/>
      <point x="112" y="255" type="curve"/>
      <point x="222" y="83"/>
      <point x="334" y="15"/>
      <point x="457" y="-56" type="curve"/>
      <point x="485" y="-20" type="line"/>
      <point x="438" y="3"/>
      <point x="341" y="60"/>
      <point x="278" y="152" type="curve"/>
      <point x="463" y="203"/>
      <point x="516" y="272"/>
      <point x="509" y="365" type="curve"/>
      <point x="619" y="365" type="line"/>
      <point x="639" y="461" type="line"/>
      <point x="488" y="461" type="line"/>
      <point x="481" y="481"/>
      <point x="474" y="501"/>
      <point x="465" y="523" type="curve"/>
      <point x="619" y="523" type="line"/>
      <point x="639" y="619" type="line"/>
      <point x="80" y="619" type="line"/>
      <point x="60" y="523" type="line"/>
      <point x="390" y="523" type="line"/>
      <point x="397" y="504"/>
      <point x="404" y="483"/>
      <point x="409" y="461" type="curve"/>
      <point x="80" y="461" type="line"/>
    </contour>
  </outline>
</glyph>
